<svg width="490" height="112" viewBox="0 0 490 112" fill="none" xmlns="http://www.w3.org/2000/svg">
<path fill-rule="evenodd" clip-rule="evenodd" d="M213.703 19.0344C199.946 19.1764 186.385 20.759 173.02 23.7821C157.819 27.2205 148.121 39.1033 150.307 51.6161C152.757 65.6554 165.992 76.9399 183.353 79.7973C190.068 80.902 197.697 81.8863 206.244 82.75C245.072 86.6749 278.459 84.2709 298.179 84.2709C317.899 84.2709 315.213 83.5298 337.264 82.75C359.314 81.9709 349.809 82.4846 381.467 81.3282C393.085 80.9034 404.701 80.4591 416.316 79.9953C417.543 79.9466 418.765 79.8349 419.975 79.661C436.517 81.4889 458.697 87.5752 454.476 83.7745C451.422 81.0226 446.734 75.5367 440.413 67.3154C442.535 63.8684 443.523 60.046 443.285 56.2088L442.422 41.7921C441.718 30.0477 429.931 20.6715 415.243 20.1736C392.9 19.4139 373.368 19.0344 356.644 19.0344C322.281 19.0344 325.193 21.1722 288.048 21.1722C250.903 21.1722 247.955 18.6807 213.703 19.0344Z" fill="#F1F6D2"/>
<path d="M210.327 32.5918H206.214V44H204.535V32.5918H200.431V31.2031H210.327V32.5918ZM214.157 35.6416C214.877 34.7568 215.815 34.3145 216.969 34.3145C218.979 34.3145 219.993 35.4482 220.01 37.7158V44H218.384V37.707C218.378 37.0215 218.22 36.5146 217.91 36.1865C217.605 35.8584 217.127 35.6943 216.477 35.6943C215.95 35.6943 215.487 35.835 215.088 36.1162C214.69 36.3975 214.379 36.7666 214.157 37.2236V44H212.531V30.5H214.157V35.6416ZM224.771 44H223.145V34.4902H224.771V44ZM223.014 31.9678C223.014 31.7041 223.093 31.4814 223.251 31.2998C223.415 31.1182 223.655 31.0273 223.972 31.0273C224.288 31.0273 224.528 31.1182 224.692 31.2998C224.856 31.4814 224.938 31.7041 224.938 31.9678C224.938 32.2314 224.856 32.4512 224.692 32.627C224.528 32.8027 224.288 32.8906 223.972 32.8906C223.655 32.8906 223.415 32.8027 223.251 32.627C223.093 32.4512 223.014 32.2314 223.014 31.9678ZM233.479 41.4775C233.479 41.0381 233.312 40.6982 232.978 40.458C232.65 40.2119 232.073 40.001 231.246 39.8252C230.426 39.6494 229.773 39.4385 229.286 39.1924C228.806 38.9463 228.449 38.6533 228.214 38.3135C227.986 37.9736 227.871 37.5693 227.871 37.1006C227.871 36.3213 228.2 35.6621 228.856 35.123C229.518 34.584 230.362 34.3145 231.387 34.3145C232.465 34.3145 233.338 34.5928 234.006 35.1494C234.68 35.7061 235.017 36.418 235.017 37.2852H233.382C233.382 36.8398 233.192 36.4561 232.811 36.1338C232.436 35.8115 231.961 35.6504 231.387 35.6504C230.795 35.6504 230.332 35.7793 229.998 36.0371C229.664 36.2949 229.497 36.6318 229.497 37.0479C229.497 37.4404 229.653 37.7363 229.963 37.9355C230.274 38.1348 230.833 38.3252 231.642 38.5068C232.456 38.6885 233.116 38.9053 233.619 39.1572C234.123 39.4092 234.495 39.7139 234.736 40.0713C234.982 40.4229 235.105 40.8535 235.105 41.3633C235.105 42.2129 234.765 42.8955 234.085 43.4111C233.406 43.9209 232.524 44.1758 231.44 44.1758C230.678 44.1758 230.004 44.041 229.418 43.7715C228.832 43.502 228.372 43.127 228.038 42.6465C227.71 42.1602 227.546 41.6357 227.546 41.0732H229.172C229.201 41.6182 229.418 42.0518 229.823 42.374C230.233 42.6904 230.772 42.8486 231.44 42.8486C232.055 42.8486 232.547 42.7256 232.916 42.4795C233.291 42.2275 233.479 41.8936 233.479 41.4775ZM248.679 44C248.585 43.8125 248.509 43.4785 248.45 42.998C247.695 43.7832 246.792 44.1758 245.743 44.1758C244.806 44.1758 244.035 43.9121 243.432 43.3848C242.834 42.8516 242.535 42.1777 242.535 41.3633C242.535 40.373 242.91 39.6055 243.66 39.0605C244.416 38.5098 245.477 38.2344 246.842 38.2344H248.424V37.4873C248.424 36.9189 248.254 36.4678 247.914 36.1338C247.574 35.7939 247.073 35.624 246.411 35.624C245.831 35.624 245.345 35.7705 244.952 36.0635C244.56 36.3564 244.363 36.7109 244.363 37.127H242.729C242.729 36.6523 242.896 36.1953 243.23 35.7559C243.57 35.3105 244.027 34.959 244.601 34.7012C245.181 34.4434 245.817 34.3145 246.508 34.3145C247.604 34.3145 248.462 34.5898 249.083 35.1406C249.704 35.6855 250.027 36.4385 250.05 37.3994V41.7764C250.05 42.6494 250.161 43.3438 250.384 43.8594V44H248.679ZM245.981 42.7607C246.49 42.7607 246.974 42.6289 247.431 42.3652C247.888 42.1016 248.219 41.7588 248.424 41.3369V39.3857H247.15C245.157 39.3857 244.161 39.9688 244.161 41.1348C244.161 41.6445 244.331 42.043 244.671 42.3301C245.011 42.6172 245.447 42.7607 245.981 42.7607ZM256.973 42.8486C257.553 42.8486 258.06 42.6729 258.494 42.3213C258.927 41.9697 259.168 41.5303 259.214 41.0029H260.753C260.723 41.5479 260.536 42.0664 260.19 42.5586C259.844 43.0508 259.381 43.4434 258.801 43.7363C258.227 44.0293 257.618 44.1758 256.973 44.1758C255.678 44.1758 254.647 43.7451 253.88 42.8838C253.118 42.0166 252.737 40.833 252.737 39.333V39.0605C252.737 38.1348 252.907 37.3115 253.247 36.5908C253.587 35.8701 254.073 35.3105 254.706 34.9121C255.344 34.5137 256.097 34.3145 256.964 34.3145C258.031 34.3145 258.916 34.6338 259.619 35.2725C260.328 35.9111 260.706 36.7402 260.753 37.7598H259.214C259.168 37.1445 258.933 36.6406 258.511 36.248C258.095 35.8496 257.58 35.6504 256.964 35.6504C256.138 35.6504 255.497 35.9492 255.04 36.5469C254.589 37.1387 254.363 37.9971 254.363 39.1221V39.4297C254.363 40.5254 254.589 41.3691 255.04 41.9609C255.491 42.5527 256.135 42.8486 256.973 42.8486ZM264.679 34.4902L264.732 35.6855C265.458 34.7715 266.407 34.3145 267.579 34.3145C269.589 34.3145 270.603 35.4482 270.62 37.7158V44H268.994V37.707C268.988 37.0215 268.83 36.5146 268.52 36.1865C268.215 35.8584 267.737 35.6943 267.087 35.6943C266.56 35.6943 266.097 35.835 265.698 36.1162C265.3 36.3975 264.989 36.7666 264.767 37.2236V44H263.141V34.4902H264.679ZM277.579 44.1758C276.29 44.1758 275.241 43.7539 274.432 42.9102C273.624 42.0605 273.219 40.9268 273.219 39.5088V39.21C273.219 38.2666 273.398 37.4258 273.755 36.6875C274.119 35.9434 274.623 35.3633 275.267 34.9473C275.918 34.5254 276.621 34.3145 277.376 34.3145C278.613 34.3145 279.574 34.7217 280.259 35.5361C280.945 36.3506 281.288 37.5166 281.288 39.0342V39.7109H274.845C274.869 40.6484 275.141 41.4072 275.663 41.9873C276.19 42.5615 276.858 42.8486 277.667 42.8486C278.241 42.8486 278.727 42.7314 279.126 42.4971C279.524 42.2627 279.873 41.9521 280.171 41.5654L281.165 42.3389C280.368 43.5635 279.172 44.1758 277.579 44.1758ZM277.376 35.6504C276.72 35.6504 276.169 35.8906 275.724 36.3711C275.279 36.8457 275.003 37.5137 274.898 38.375H279.662V38.252C279.615 37.4258 279.392 36.7871 278.994 36.3359C278.595 35.8789 278.056 35.6504 277.376 35.6504ZM290.291 34.4902L290.335 35.5449C291.033 34.7246 291.973 34.3145 293.157 34.3145C294.487 34.3145 295.392 34.8242 295.872 35.8438C296.189 35.3867 296.599 35.0176 297.103 34.7363C297.613 34.4551 298.213 34.3145 298.905 34.3145C300.991 34.3145 302.051 35.4189 302.086 37.6279V44H300.46V37.7246C300.46 37.0449 300.305 36.5381 299.995 36.2041C299.684 35.8643 299.162 35.6943 298.43 35.6943C297.827 35.6943 297.326 35.876 296.927 36.2393C296.529 36.5967 296.297 37.0801 296.233 37.6895V44H294.598V37.7686C294.598 36.3857 293.921 35.6943 292.568 35.6943C291.501 35.6943 290.772 36.1484 290.379 37.0566V44H288.753V34.4902H290.291ZM309.054 44.1758C307.764 44.1758 306.716 43.7539 305.907 42.9102C305.098 42.0605 304.694 40.9268 304.694 39.5088V39.21C304.694 38.2666 304.873 37.4258 305.23 36.6875C305.594 35.9434 306.098 35.3633 306.742 34.9473C307.392 34.5254 308.096 34.3145 308.851 34.3145C310.088 34.3145 311.049 34.7217 311.734 35.5361C312.42 36.3506 312.763 37.5166 312.763 39.0342V39.7109H306.32C306.344 40.6484 306.616 41.4072 307.138 41.9873C307.665 42.5615 308.333 42.8486 309.141 42.8486C309.716 42.8486 310.202 42.7314 310.6 42.4971C310.999 42.2627 311.348 41.9521 311.646 41.5654L312.639 42.3389C311.843 43.5635 310.647 44.1758 309.054 44.1758ZM308.851 35.6504C308.195 35.6504 307.644 35.8906 307.199 36.3711C306.754 36.8457 306.478 37.5137 306.373 38.375H311.137V38.252C311.09 37.4258 310.867 36.7871 310.469 36.3359C310.07 35.8789 309.531 35.6504 308.851 35.6504ZM314.817 39.166C314.817 37.707 315.162 36.5352 315.854 35.6504C316.545 34.7598 317.45 34.3145 318.57 34.3145C319.683 34.3145 320.565 34.6953 321.215 35.457V30.5H322.841V44H321.347L321.268 42.9805C320.617 43.7773 319.712 44.1758 318.552 44.1758C317.45 44.1758 316.551 43.7246 315.854 42.8223C315.162 41.9199 314.817 40.7422 314.817 39.2891V39.166ZM316.443 39.3506C316.443 40.4287 316.665 41.2725 317.111 41.8818C317.556 42.4912 318.171 42.7959 318.956 42.7959C319.988 42.7959 320.741 42.333 321.215 41.4072V37.0391C320.729 36.1426 319.982 35.6943 318.974 35.6943C318.177 35.6943 317.556 36.002 317.111 36.6172C316.665 37.2324 316.443 38.1436 316.443 39.3506ZM327.699 44H326.073V34.4902H327.699V44ZM325.941 31.9678C325.941 31.7041 326.02 31.4814 326.178 31.2998C326.342 31.1182 326.583 31.0273 326.899 31.0273C327.216 31.0273 327.456 31.1182 327.62 31.2998C327.784 31.4814 327.866 31.7041 327.866 31.9678C327.866 32.2314 327.784 32.4512 327.62 32.627C327.456 32.8027 327.216 32.8906 326.899 32.8906C326.583 32.8906 326.342 32.8027 326.178 32.627C326.02 32.4512 325.941 32.2314 325.941 31.9678ZM334.684 42.8486C335.264 42.8486 335.771 42.6729 336.204 42.3213C336.638 41.9697 336.878 41.5303 336.925 41.0029H338.463C338.434 41.5479 338.246 42.0664 337.901 42.5586C337.555 43.0508 337.092 43.4434 336.512 43.7363C335.938 44.0293 335.328 44.1758 334.684 44.1758C333.389 44.1758 332.358 43.7451 331.59 42.8838C330.828 42.0166 330.447 40.833 330.447 39.333V39.0605C330.447 38.1348 330.617 37.3115 330.957 36.5908C331.297 35.8701 331.783 35.3105 332.416 34.9121C333.055 34.5137 333.808 34.3145 334.675 34.3145C335.741 34.3145 336.626 34.6338 337.329 35.2725C338.038 35.9111 338.416 36.7402 338.463 37.7598H336.925C336.878 37.1445 336.644 36.6406 336.222 36.248C335.806 35.8496 335.29 35.6504 334.675 35.6504C333.849 35.6504 333.207 35.9492 332.75 36.5469C332.299 37.1387 332.073 37.9971 332.073 39.1221V39.4297C332.073 40.5254 332.299 41.3691 332.75 41.9609C333.201 42.5527 333.846 42.8486 334.684 42.8486ZM342.618 44H340.992V34.4902H342.618V44ZM340.86 31.9678C340.86 31.7041 340.939 31.4814 341.097 31.2998C341.261 31.1182 341.502 31.0273 341.818 31.0273C342.134 31.0273 342.375 31.1182 342.539 31.2998C342.703 31.4814 342.785 31.7041 342.785 31.9678C342.785 32.2314 342.703 32.4512 342.539 32.627C342.375 32.8027 342.134 32.8906 341.818 32.8906C341.502 32.8906 341.261 32.8027 341.097 32.627C340.939 32.4512 340.86 32.2314 340.86 31.9678ZM347.326 34.4902L347.379 35.6855C348.106 34.7715 349.055 34.3145 350.227 34.3145C352.236 34.3145 353.25 35.4482 353.268 37.7158V44H351.642V37.707C351.636 37.0215 351.478 36.5146 351.167 36.1865C350.862 35.8584 350.385 35.6943 349.734 35.6943C349.207 35.6943 348.744 35.835 348.346 36.1162C347.947 36.3975 347.637 36.7666 347.414 37.2236V44H345.788V34.4902H347.326ZM360.226 44.1758C358.937 44.1758 357.888 43.7539 357.08 42.9102C356.271 42.0605 355.867 40.9268 355.867 39.5088V39.21C355.867 38.2666 356.045 37.4258 356.403 36.6875C356.766 35.9434 357.27 35.3633 357.915 34.9473C358.565 34.5254 359.268 34.3145 360.024 34.3145C361.26 34.3145 362.221 34.7217 362.907 35.5361C363.592 36.3506 363.935 37.5166 363.935 39.0342V39.7109H357.493C357.516 40.6484 357.789 41.4072 358.31 41.9873C358.837 42.5615 359.505 42.8486 360.314 42.8486C360.888 42.8486 361.374 42.7314 361.773 42.4971C362.171 42.2627 362.52 41.9521 362.819 41.5654L363.812 42.3389C363.015 43.5635 361.82 44.1758 360.226 44.1758ZM360.024 35.6504C359.368 35.6504 358.817 35.8906 358.372 36.3711C357.926 36.8457 357.651 37.5137 357.545 38.375H362.309V38.252C362.262 37.4258 362.04 36.7871 361.641 36.3359C361.243 35.8789 360.704 35.6504 360.024 35.6504ZM373.176 44H371.55V34.4902H373.176V44ZM371.418 31.9678C371.418 31.7041 371.497 31.4814 371.656 31.2998C371.82 31.1182 372.06 31.0273 372.376 31.0273C372.693 31.0273 372.933 31.1182 373.097 31.2998C373.261 31.4814 373.343 31.7041 373.343 31.9678C373.343 32.2314 373.261 32.4512 373.097 32.627C372.933 32.8027 372.693 32.8906 372.376 32.8906C372.06 32.8906 371.82 32.8027 371.656 32.627C371.497 32.4512 371.418 32.2314 371.418 31.9678ZM381.884 41.4775C381.884 41.0381 381.717 40.6982 381.383 40.458C381.054 40.2119 380.477 40.001 379.651 39.8252C378.831 39.6494 378.178 39.4385 377.691 39.1924C377.211 38.9463 376.853 38.6533 376.619 38.3135C376.39 37.9736 376.276 37.5693 376.276 37.1006C376.276 36.3213 376.604 35.6621 377.261 35.123C377.923 34.584 378.766 34.3145 379.792 34.3145C380.87 34.3145 381.743 34.5928 382.411 35.1494C383.085 35.7061 383.422 36.418 383.422 37.2852H381.787C381.787 36.8398 381.596 36.4561 381.216 36.1338C380.841 35.8115 380.366 35.6504 379.792 35.6504C379.2 35.6504 378.737 35.7793 378.403 36.0371C378.069 36.2949 377.902 36.6318 377.902 37.0479C377.902 37.4404 378.057 37.7363 378.368 37.9355C378.679 38.1348 379.238 38.3252 380.047 38.5068C380.861 38.6885 381.52 38.9053 382.024 39.1572C382.528 39.4092 382.9 39.7139 383.14 40.0713C383.387 40.4229 383.51 40.8535 383.51 41.3633C383.51 42.2129 383.17 42.8955 382.49 43.4111C381.81 43.9209 380.929 44.1758 379.845 44.1758C379.083 44.1758 378.409 44.041 377.823 43.7715C377.237 43.502 376.777 43.127 376.443 42.6465C376.115 42.1602 375.951 41.6357 375.951 41.0732H377.577C377.606 41.6182 377.823 42.0518 378.227 42.374C378.637 42.6904 379.177 42.8486 379.845 42.8486C380.46 42.8486 380.952 42.7256 381.321 42.4795C381.696 42.2275 381.884 41.8936 381.884 41.4775ZM207.102 66.0596C206.469 66.8037 205.54 67.1758 204.315 67.1758C203.302 67.1758 202.528 66.8828 201.995 66.2969C201.468 65.7051 201.201 64.832 201.195 63.6777V57.4902H202.821V63.6338C202.821 65.0752 203.407 65.7959 204.579 65.7959C205.821 65.7959 206.647 65.333 207.058 64.4072V57.4902H208.684V67H207.137L207.102 66.0596ZM219.755 62.3506C219.755 63.7979 219.424 64.9639 218.762 65.8486C218.1 66.7334 217.204 67.1758 216.073 67.1758C214.918 67.1758 214.01 66.8096 213.348 66.0771V70.6562H211.722V57.4902H213.207L213.287 58.5449C213.949 57.7246 214.869 57.3145 216.046 57.3145C217.189 57.3145 218.091 57.7451 218.753 58.6064C219.421 59.4678 219.755 60.666 219.755 62.2012V62.3506ZM218.129 62.166C218.129 61.0938 217.901 60.2471 217.444 59.626C216.987 59.0049 216.36 58.6943 215.563 58.6943C214.579 58.6943 213.84 59.1309 213.348 60.0039V64.5479C213.834 65.415 214.579 65.8486 215.581 65.8486C216.36 65.8486 216.978 65.541 217.435 64.9258C217.898 64.3047 218.129 63.3848 218.129 62.166ZM227.927 64.4775C227.927 64.0381 227.76 63.6982 227.426 63.458C227.098 63.2119 226.52 63.001 225.694 62.8252C224.874 62.6494 224.221 62.4385 223.734 62.1924C223.254 61.9463 222.896 61.6533 222.662 61.3135C222.433 60.9736 222.319 60.5693 222.319 60.1006C222.319 59.3213 222.647 58.6621 223.304 58.123C223.966 57.584 224.809 57.3145 225.835 57.3145C226.913 57.3145 227.786 57.5928 228.454 58.1494C229.128 58.7061 229.465 59.418 229.465 60.2852H227.83C227.83 59.8398 227.64 59.4561 227.259 59.1338C226.884 58.8115 226.409 58.6504 225.835 58.6504C225.243 58.6504 224.78 58.7793 224.446 59.0371C224.112 59.2949 223.945 59.6318 223.945 60.0479C223.945 60.4404 224.1 60.7363 224.411 60.9355C224.722 61.1348 225.281 61.3252 226.09 61.5068C226.904 61.6885 227.563 61.9053 228.067 62.1572C228.571 62.4092 228.943 62.7139 229.183 63.0713C229.43 63.4229 229.553 63.8535 229.553 64.3633C229.553 65.2129 229.213 65.8955 228.533 66.4111C227.853 66.9209 226.972 67.1758 225.888 67.1758C225.126 67.1758 224.452 67.041 223.866 66.7715C223.28 66.502 222.82 66.127 222.486 65.6465C222.158 65.1602 221.994 64.6357 221.994 64.0732H223.62C223.649 64.6182 223.866 65.0518 224.27 65.374C224.681 65.6904 225.22 65.8486 225.888 65.8486C226.503 65.8486 226.995 65.7256 227.364 65.4795C227.739 65.2275 227.927 64.8936 227.927 64.4775ZM236.177 67.1758C234.888 67.1758 233.839 66.7539 233.031 65.9102C232.222 65.0605 231.818 63.9268 231.818 62.5088V62.21C231.818 61.2666 231.996 60.4258 232.354 59.6875C232.717 58.9434 233.221 58.3633 233.866 57.9473C234.516 57.5254 235.219 57.3145 235.975 57.3145C237.211 57.3145 238.172 57.7217 238.858 58.5361C239.543 59.3506 239.886 60.5166 239.886 62.0342V62.7109H233.444C233.467 63.6484 233.74 64.4072 234.261 64.9873C234.788 65.5615 235.456 65.8486 236.265 65.8486C236.839 65.8486 237.326 65.7314 237.724 65.4971C238.122 65.2627 238.471 64.9521 238.77 64.5654L239.763 65.3389C238.966 66.5635 237.771 67.1758 236.177 67.1758ZM235.975 58.6504C235.319 58.6504 234.768 58.8906 234.323 59.3711C233.877 59.8457 233.602 60.5137 233.496 61.375H238.26V61.252C238.213 60.4258 237.991 59.7871 237.592 59.3359C237.194 58.8789 236.655 58.6504 235.975 58.6504ZM244.542 55.1875V57.4902H246.317V58.7471H244.542V64.6445C244.542 65.0254 244.621 65.3125 244.779 65.5059C244.937 65.6934 245.207 65.7871 245.588 65.7871C245.775 65.7871 246.033 65.752 246.361 65.6816V67C245.933 67.1172 245.517 67.1758 245.113 67.1758C244.386 67.1758 243.839 66.9561 243.469 66.5166C243.1 66.0771 242.916 65.4531 242.916 64.6445V58.7471H241.184V57.4902H242.916V55.1875H244.542ZM250.99 55.1875V57.4902H252.766V58.7471H250.99V64.6445C250.99 65.0254 251.07 65.3125 251.228 65.5059C251.386 65.6934 251.655 65.7871 252.036 65.7871C252.224 65.7871 252.482 65.752 252.81 65.6816V67C252.382 67.1172 251.966 67.1758 251.562 67.1758C250.835 67.1758 250.287 66.9561 249.918 66.5166C249.549 66.0771 249.364 65.4531 249.364 64.6445V58.7471H247.633V57.4902H249.364V55.1875H250.99ZM257 67H255.374V57.4902H257V67ZM255.242 54.9678C255.242 54.7041 255.321 54.4814 255.479 54.2998C255.643 54.1182 255.883 54.0273 256.2 54.0273C256.516 54.0273 256.756 54.1182 256.921 54.2998C257.085 54.4814 257.167 54.7041 257.167 54.9678C257.167 55.2314 257.085 55.4512 256.921 55.627C256.756 55.8027 256.516 55.8906 256.2 55.8906C255.883 55.8906 255.643 55.8027 255.479 55.627C255.321 55.4512 255.242 55.2314 255.242 54.9678ZM261.708 57.4902L261.761 58.6855C262.487 57.7715 263.437 57.3145 264.608 57.3145C266.618 57.3145 267.632 58.4482 267.649 60.7158V67H266.024V60.707C266.018 60.0215 265.859 59.5146 265.549 59.1865C265.244 58.8584 264.767 58.6943 264.116 58.6943C263.589 58.6943 263.126 58.835 262.728 59.1162C262.329 59.3975 262.019 59.7666 261.796 60.2236V67H260.17V57.4902H261.708ZM270.275 62.166C270.275 60.6836 270.618 59.5059 271.303 58.6328C271.989 57.7539 272.897 57.3145 274.028 57.3145C275.188 57.3145 276.093 57.7246 276.744 58.5449L276.823 57.4902H278.308V66.7715C278.308 68.002 277.942 68.9717 277.209 69.6807C276.483 70.3896 275.504 70.7441 274.274 70.7441C273.588 70.7441 272.918 70.5977 272.261 70.3047C271.605 70.0117 271.104 69.6104 270.758 69.1006L271.602 68.125C272.299 68.9863 273.152 69.417 274.16 69.417C274.951 69.417 275.566 69.1943 276.005 68.749C276.451 68.3037 276.673 67.6768 276.673 66.8682V66.0508C276.023 66.8008 275.135 67.1758 274.01 67.1758C272.897 67.1758 271.995 66.7275 271.303 65.8311C270.618 64.9346 270.275 63.7129 270.275 62.166ZM271.91 62.3506C271.91 63.4229 272.129 64.2666 272.569 64.8818C273.008 65.4912 273.624 65.7959 274.415 65.7959C275.44 65.7959 276.193 65.3301 276.673 64.3984V60.0566C276.175 59.1484 275.428 58.6943 274.432 58.6943C273.641 58.6943 273.023 59.002 272.578 59.6172C272.132 60.2324 271.91 61.1436 271.91 62.3506ZM287.883 57.4902L287.927 58.5449C288.624 57.7246 289.565 57.3145 290.748 57.3145C292.079 57.3145 292.984 57.8242 293.464 58.8438C293.781 58.3867 294.191 58.0176 294.695 57.7363C295.204 57.4551 295.805 57.3145 296.496 57.3145C298.582 57.3145 299.643 58.4189 299.678 60.6279V67H298.052V60.7246C298.052 60.0449 297.897 59.5381 297.586 59.2041C297.276 58.8643 296.754 58.6943 296.022 58.6943C295.418 58.6943 294.917 58.876 294.519 59.2393C294.121 59.5967 293.889 60.0801 293.825 60.6895V67H292.19V60.7686C292.19 59.3857 291.513 58.6943 290.16 58.6943C289.093 58.6943 288.364 59.1484 287.971 60.0566V67H286.345V57.4902H287.883ZM305.81 64.6182L308.025 57.4902H309.765L305.942 68.4678C305.35 70.0498 304.41 70.8408 303.121 70.8408L302.813 70.8145L302.207 70.7002V69.3818L302.646 69.417C303.197 69.417 303.625 69.3057 303.93 69.083C304.24 68.8604 304.495 68.4531 304.694 67.8613L305.055 66.8945L301.662 57.4902H303.437L305.81 64.6182ZM322.346 64.4775C322.346 64.0381 322.179 63.6982 321.845 63.458C321.517 63.2119 320.94 63.001 320.114 62.8252C319.294 62.6494 318.64 62.4385 318.154 62.1924C317.674 61.9463 317.316 61.6533 317.082 61.3135C316.853 60.9736 316.739 60.5693 316.739 60.1006C316.739 59.3213 317.067 58.6621 317.723 58.123C318.385 57.584 319.229 57.3145 320.255 57.3145C321.333 57.3145 322.206 57.5928 322.874 58.1494C323.548 58.7061 323.884 59.418 323.884 60.2852H322.25C322.25 59.8398 322.059 59.4561 321.678 59.1338C321.303 58.8115 320.829 58.6504 320.255 58.6504C319.663 58.6504 319.2 58.7793 318.866 59.0371C318.532 59.2949 318.365 59.6318 318.365 60.0479C318.365 60.4404 318.52 60.7363 318.831 60.9355C319.141 61.1348 319.701 61.3252 320.509 61.5068C321.324 61.6885 321.983 61.9053 322.487 62.1572C322.991 62.4092 323.363 62.7139 323.603 63.0713C323.849 63.4229 323.972 63.8535 323.972 64.3633C323.972 65.2129 323.633 65.8955 322.953 66.4111C322.273 66.9209 321.391 67.1758 320.307 67.1758C319.546 67.1758 318.872 67.041 318.286 66.7715C317.7 66.502 317.24 66.127 316.906 65.6465C316.578 65.1602 316.414 64.6357 316.414 64.0732H318.04C318.069 64.6182 318.286 65.0518 318.69 65.374C319.1 65.6904 319.639 65.8486 320.307 65.8486C320.923 65.8486 321.415 65.7256 321.784 65.4795C322.159 65.2275 322.346 64.8936 322.346 64.4775ZM328.857 55.1875V57.4902H330.632V58.7471H328.857V64.6445C328.857 65.0254 328.936 65.3125 329.094 65.5059C329.252 65.6934 329.522 65.7871 329.902 65.7871C330.09 65.7871 330.348 65.752 330.676 65.6816V67C330.248 67.1172 329.832 67.1758 329.428 67.1758C328.701 67.1758 328.153 66.9561 327.784 66.5166C327.415 66.0771 327.231 65.4531 327.231 64.6445V58.7471H325.499V57.4902H327.231V55.1875H328.857ZM332.493 62.1572C332.493 61.2256 332.674 60.3877 333.038 59.6436C333.407 58.8994 333.917 58.3252 334.567 57.9209C335.223 57.5166 335.97 57.3145 336.808 57.3145C338.103 57.3145 339.149 57.7627 339.946 58.6592C340.749 59.5557 341.15 60.748 341.15 62.2363V62.3506C341.15 63.2764 340.971 64.1084 340.614 64.8467C340.262 65.5791 339.755 66.1504 339.093 66.5605C338.437 66.9707 337.681 67.1758 336.826 67.1758C335.537 67.1758 334.491 66.7275 333.688 65.8311C332.891 64.9346 332.493 63.748 332.493 62.2715V62.1572ZM334.128 62.3506C334.128 63.4053 334.371 64.252 334.857 64.8906C335.349 65.5293 336.005 65.8486 336.826 65.8486C337.652 65.8486 338.308 65.5264 338.795 64.8818C339.281 64.2314 339.524 63.3232 339.524 62.1572C339.524 61.1143 339.275 60.2705 338.777 59.626C338.285 58.9756 337.629 58.6504 336.808 58.6504C336.005 58.6504 335.358 58.9697 334.866 59.6084C334.374 60.2471 334.128 61.1611 334.128 62.3506ZM345.278 57.4902L345.322 58.5449C346.02 57.7246 346.96 57.3145 348.144 57.3145C349.474 57.3145 350.379 57.8242 350.859 58.8438C351.176 58.3867 351.586 58.0176 352.09 57.7363C352.6 57.4551 353.2 57.3145 353.892 57.3145C355.978 57.3145 357.038 58.4189 357.073 60.6279V67H355.447V60.7246C355.447 60.0449 355.292 59.5381 354.981 59.2041C354.671 58.8643 354.149 58.6943 353.417 58.6943C352.814 58.6943 352.313 58.876 351.914 59.2393C351.516 59.5967 351.284 60.0801 351.22 60.6895V67H349.585V60.7686C349.585 59.3857 348.908 58.6943 347.555 58.6943C346.488 58.6943 345.759 59.1484 345.366 60.0566V67H343.74V57.4902H345.278ZM365.965 67C365.872 66.8125 365.795 66.4785 365.737 65.998C364.981 66.7832 364.079 67.1758 363.03 67.1758C362.092 67.1758 361.322 66.9121 360.718 66.3848C360.121 65.8516 359.822 65.1777 359.822 64.3633C359.822 63.373 360.197 62.6055 360.947 62.0605C361.703 61.5098 362.763 61.2344 364.128 61.2344H365.71V60.4873C365.71 59.9189 365.541 59.4678 365.201 59.1338C364.861 58.7939 364.36 58.624 363.698 58.624C363.118 58.624 362.631 58.7705 362.239 59.0635C361.846 59.3564 361.65 59.7109 361.65 60.127H360.015C360.015 59.6523 360.182 59.1953 360.516 58.7559C360.856 58.3105 361.313 57.959 361.887 57.7012C362.467 57.4434 363.103 57.3145 363.794 57.3145C364.89 57.3145 365.749 57.5898 366.37 58.1406C366.991 58.6855 367.313 59.4385 367.336 60.3994V64.7764C367.336 65.6494 367.448 66.3438 367.67 66.8594V67H365.965ZM363.267 65.7607C363.777 65.7607 364.26 65.6289 364.717 65.3652C365.174 65.1016 365.505 64.7588 365.71 64.3369V62.3857H364.436C362.444 62.3857 361.448 62.9688 361.448 64.1348C361.448 64.6445 361.618 65.043 361.958 65.3301C362.297 65.6172 362.734 65.7607 363.267 65.7607ZM374.26 65.8486C374.84 65.8486 375.347 65.6729 375.78 65.3213C376.214 64.9697 376.454 64.5303 376.501 64.0029H378.039C378.01 64.5479 377.822 65.0664 377.476 65.5586C377.131 66.0508 376.668 66.4434 376.088 66.7363C375.514 67.0293 374.904 67.1758 374.26 67.1758C372.965 67.1758 371.934 66.7451 371.166 65.8838C370.404 65.0166 370.023 63.833 370.023 62.333V62.0605C370.023 61.1348 370.193 60.3115 370.533 59.5908C370.873 58.8701 371.359 58.3105 371.992 57.9121C372.631 57.5137 373.384 57.3145 374.251 57.3145C375.317 57.3145 376.202 57.6338 376.905 58.2725C377.614 58.9111 377.992 59.7402 378.039 60.7598H376.501C376.454 60.1445 376.22 59.6406 375.798 59.248C375.382 58.8496 374.866 58.6504 374.251 58.6504C373.425 58.6504 372.783 58.9492 372.326 59.5469C371.875 60.1387 371.649 60.9971 371.649 62.1221V62.4297C371.649 63.5254 371.875 64.3691 372.326 64.9609C372.777 65.5527 373.422 65.8486 374.26 65.8486ZM382.053 58.6416C382.774 57.7568 383.711 57.3145 384.866 57.3145C386.875 57.3145 387.889 58.4482 387.907 60.7158V67H386.281V60.707C386.275 60.0215 386.117 59.5146 385.806 59.1865C385.501 58.8584 385.024 58.6943 384.373 58.6943C383.846 58.6943 383.383 58.835 382.985 59.1162C382.586 59.3975 382.276 59.7666 382.053 60.2236V67H380.427V53.5H382.053V58.6416ZM390.936 66.1475C390.936 65.8662 391.018 65.6318 391.182 65.4443C391.352 65.2568 391.604 65.1631 391.938 65.1631C392.272 65.1631 392.524 65.2568 392.694 65.4443C392.87 65.6318 392.958 65.8662 392.958 66.1475C392.958 66.417 392.87 66.6426 392.694 66.8242C392.524 67.0059 392.272 67.0967 391.938 67.0967C391.604 67.0967 391.352 67.0059 391.182 66.8242C391.018 66.6426 390.936 66.417 390.936 66.1475Z" fill="#0B4A72"/>
</svg>
