<svg width="340" height="112" viewBox="0 0 340 112" fill="none" xmlns="http://www.w3.org/2000/svg">
<path fill-rule="evenodd" clip-rule="evenodd" d="M268.986 20.037C284.322 20.1898 299.439 21.8922 314.338 25.1443C331.284 28.8433 342.094 41.6263 339.658 55.087C336.926 70.1899 322.173 82.3293 302.819 85.4031C295.334 86.5916 286.829 87.6504 277.301 88.5796C234.018 92.8018 196.8 90.2157 174.817 90.2157C152.834 90.2157 155.829 89.4185 131.247 88.5796C106.667 87.7415 117.263 88.294 81.9707 87.05C69.0201 86.5931 56.0708 86.1151 43.1228 85.6161C41.7549 85.5638 40.3927 85.4436 39.0448 85.2565C20.6038 87.2229 -4.12113 93.7703 0.583857 89.6816C3.98885 86.7212 9.21484 80.8198 16.2608 71.9757C13.896 68.2675 12.794 64.1555 13.0588 60.0276L14.0218 44.5188C14.8058 31.8847 27.9458 21.7981 44.3198 21.2625C69.2257 20.4452 90.9997 20.037 109.643 20.037C147.95 20.037 144.703 22.3368 186.111 22.3368C227.518 22.3368 230.804 19.6565 268.986 20.037Z" fill="#FFF2CE"/>
<path d="M53.2959 44H51.6084V31.2031H53.2959V44ZM62.2319 41.4775C62.2319 41.0381 62.0649 40.6982 61.7309 40.458C61.4028 40.2119 60.8256 40.001 59.9995 39.8252C59.1791 39.6494 58.5258 39.4385 58.0395 39.1924C57.559 38.9463 57.2016 38.6533 56.9672 38.3135C56.7387 37.9736 56.6245 37.5693 56.6245 37.1006C56.6245 36.3213 56.9526 35.6621 57.6088 35.123C58.2709 34.584 59.1147 34.3145 60.1401 34.3145C61.2182 34.3145 62.0912 34.5928 62.7592 35.1494C63.433 35.7061 63.77 36.418 63.77 37.2852H62.1352C62.1352 36.8398 61.9448 36.4561 61.5639 36.1338C61.1889 35.8115 60.7143 35.6504 60.1401 35.6504C59.5483 35.6504 59.0854 35.7793 58.7514 36.0371C58.4174 36.2949 58.2504 36.6318 58.2504 37.0479C58.2504 37.4404 58.4057 37.7363 58.7162 37.9355C59.0268 38.1348 59.5864 38.3252 60.395 38.5068C61.2094 38.6885 61.8686 38.9053 62.3725 39.1572C62.8764 39.4092 63.2485 39.7139 63.4887 40.0713C63.7348 40.4229 63.8579 40.8535 63.8579 41.3633C63.8579 42.2129 63.518 42.8955 62.8383 43.4111C62.1586 43.9209 61.2768 44.1758 60.1928 44.1758C59.4311 44.1758 58.7573 44.041 58.1713 43.7715C57.5854 43.502 57.1254 43.127 56.7914 42.6465C56.4633 42.1602 56.2993 41.6357 56.2993 41.0732H57.9252C57.9545 41.6182 58.1713 42.0518 58.5756 42.374C58.9858 42.6904 59.5248 42.8486 60.1928 42.8486C60.808 42.8486 61.3002 42.7256 61.6694 42.4795C62.0444 42.2275 62.2319 41.8936 62.2319 41.4775ZM73.3275 44H71.7015V34.4902H73.3275V44ZM71.5696 31.9678C71.5696 31.7041 71.6488 31.4814 71.807 31.2998C71.971 31.1182 72.2113 31.0273 72.5277 31.0273C72.8441 31.0273 73.0843 31.1182 73.2484 31.2998C73.4124 31.4814 73.4945 31.7041 73.4945 31.9678C73.4945 32.2314 73.4124 32.4512 73.2484 32.627C73.0843 32.8027 72.8441 32.8906 72.5277 32.8906C72.2113 32.8906 71.971 32.8027 71.807 32.627C71.6488 32.4512 71.5696 32.2314 71.5696 31.9678ZM78.7039 32.1875V34.4902H80.4793V35.7471H78.7039V41.6445C78.7039 42.0254 78.783 42.3125 78.9412 42.5059C79.0994 42.6934 79.3689 42.7871 79.7498 42.7871C79.9373 42.7871 80.1951 42.752 80.5232 42.6816V44C80.0955 44.1172 79.6795 44.1758 79.2752 44.1758C78.5486 44.1758 78.0007 43.9561 77.6316 43.5166C77.2625 43.0771 77.0779 42.4531 77.0779 41.6445V35.7471H75.3464V34.4902H77.0779V32.1875H78.7039ZM87.5407 39.1572C87.5407 38.2256 87.7223 37.3877 88.0856 36.6436C88.4547 35.8994 88.9645 35.3252 89.6149 34.9209C90.2711 34.5166 91.0182 34.3145 91.8561 34.3145C93.151 34.3145 94.1969 34.7627 94.9938 35.6592C95.7965 36.5557 96.1979 37.748 96.1979 39.2363V39.3506C96.1979 40.2764 96.0192 41.1084 95.6618 41.8467C95.3102 42.5791 94.8034 43.1504 94.1413 43.5605C93.485 43.9707 92.7291 44.1758 91.8737 44.1758C90.5846 44.1758 89.5387 43.7275 88.736 42.8311C87.9391 41.9346 87.5407 40.748 87.5407 39.2715V39.1572ZM89.1754 39.3506C89.1754 40.4053 89.4186 41.252 89.9049 41.8906C90.3971 42.5293 91.0534 42.8486 91.8737 42.8486C92.6998 42.8486 93.3561 42.5264 93.8424 41.8818C94.3288 41.2314 94.5719 40.3232 94.5719 39.1572C94.5719 38.1143 94.3229 37.2705 93.8248 36.626C93.3327 35.9756 92.6764 35.6504 91.8561 35.6504C91.0534 35.6504 90.4059 35.9697 89.9137 36.6084C89.4215 37.2471 89.1754 38.1611 89.1754 39.3506ZM101.451 39.5967L100.432 40.6602V44H98.8057V30.5H100.432V38.665L101.302 37.6191L104.264 34.4902H106.241L102.541 38.4629L106.672 44H104.765L101.451 39.5967ZM114.351 44C114.257 43.8125 114.181 43.4785 114.123 42.998C113.367 43.7832 112.464 44.1758 111.416 44.1758C110.478 44.1758 109.708 43.9121 109.104 43.3848C108.506 42.8516 108.208 42.1777 108.208 41.3633C108.208 40.373 108.583 39.6055 109.333 39.0605C110.088 38.5098 111.149 38.2344 112.514 38.2344H114.096V37.4873C114.096 36.9189 113.926 36.4678 113.586 36.1338C113.247 35.7939 112.746 35.624 112.084 35.624C111.503 35.624 111.017 35.7705 110.625 36.0635C110.232 36.3564 110.036 36.7109 110.036 37.127H108.401C108.401 36.6523 108.568 36.1953 108.902 35.7559C109.242 35.3105 109.699 34.959 110.273 34.7012C110.853 34.4434 111.489 34.3145 112.18 34.3145C113.276 34.3145 114.134 34.5898 114.755 35.1406C115.376 35.6855 115.699 36.4385 115.722 37.3994V41.7764C115.722 42.6494 115.834 43.3438 116.056 43.8594V44H114.351ZM111.653 42.7607C112.163 42.7607 112.646 42.6289 113.103 42.3652C113.56 42.1016 113.891 41.7588 114.096 41.3369V39.3857H112.822C110.83 39.3857 109.834 39.9688 109.834 41.1348C109.834 41.6445 110.003 42.043 110.343 42.3301C110.683 42.6172 111.12 42.7607 111.653 42.7607ZM121.802 41.6182L124.017 34.4902H125.757L121.934 45.4678C121.342 47.0498 120.401 47.8408 119.112 47.8408L118.805 47.8145L118.198 47.7002V46.3818L118.638 46.417C119.188 46.417 119.616 46.3057 119.921 46.083C120.231 45.8604 120.486 45.4531 120.686 44.8613L121.046 43.8945L117.653 34.4902H119.429L121.802 41.6182ZM135.007 32.1875V34.4902H136.782V35.7471H135.007V41.6445C135.007 42.0254 135.086 42.3125 135.244 42.5059C135.402 42.6934 135.672 42.7871 136.053 42.7871C136.24 42.7871 136.498 42.752 136.826 42.6816V44C136.398 44.1172 135.982 44.1758 135.578 44.1758C134.851 44.1758 134.304 43.9561 133.934 43.5166C133.565 43.0771 133.381 42.4531 133.381 41.6445V35.7471H131.649V34.4902H133.381V32.1875H135.007ZM138.643 39.1572C138.643 38.2256 138.824 37.3877 139.188 36.6436C139.557 35.8994 140.067 35.3252 140.717 34.9209C141.373 34.5166 142.12 34.3145 142.958 34.3145C144.253 34.3145 145.299 34.7627 146.096 35.6592C146.899 36.5557 147.3 37.748 147.3 39.2363V39.3506C147.3 40.2764 147.121 41.1084 146.764 41.8467C146.412 42.5791 145.906 43.1504 145.243 43.5605C144.587 43.9707 143.831 44.1758 142.976 44.1758C141.687 44.1758 140.641 43.7275 139.838 42.8311C139.041 41.9346 138.643 40.748 138.643 39.2715V39.1572ZM140.278 39.3506C140.278 40.4053 140.521 41.252 141.007 41.8906C141.499 42.5293 142.156 42.8486 142.976 42.8486C143.802 42.8486 144.458 42.5264 144.945 41.8818C145.431 41.2314 145.674 40.3232 145.674 39.1572C145.674 38.1143 145.425 37.2705 144.927 36.626C144.435 35.9756 143.779 35.6504 142.958 35.6504C142.156 35.6504 141.508 35.9697 141.016 36.6084C140.524 37.2471 140.278 38.1611 140.278 39.3506ZM154.528 39.166C154.528 37.707 154.874 36.5352 155.566 35.6504C156.257 34.7598 157.162 34.3145 158.281 34.3145C159.395 34.3145 160.277 34.6953 160.927 35.457V30.5H162.553V44H161.059L160.98 42.9805C160.329 43.7773 159.424 44.1758 158.264 44.1758C157.162 44.1758 156.263 43.7246 155.566 42.8223C154.874 41.9199 154.528 40.7422 154.528 39.2891V39.166ZM156.154 39.3506C156.154 40.4287 156.377 41.2725 156.822 41.8818C157.268 42.4912 157.883 42.7959 158.668 42.7959C159.699 42.7959 160.452 42.333 160.927 41.4072V37.0391C160.441 36.1426 159.694 35.6943 158.686 35.6943C157.889 35.6943 157.268 36.002 156.822 36.6172C156.377 37.2324 156.154 38.1436 156.154 39.3506ZM170.241 35.9492C169.995 35.9082 169.728 35.8877 169.441 35.8877C168.375 35.8877 167.651 36.3418 167.27 37.25V44H165.644V34.4902H167.226L167.253 35.5889C167.786 34.7393 168.542 34.3145 169.52 34.3145C169.837 34.3145 170.077 34.3555 170.241 34.4375V35.9492ZM174.07 44H172.444V34.4902H174.07V44ZM172.313 31.9678C172.313 31.7041 172.392 31.4814 172.55 31.2998C172.714 31.1182 172.954 31.0273 173.271 31.0273C173.587 31.0273 173.827 31.1182 173.991 31.2998C174.155 31.4814 174.237 31.7041 174.237 31.9678C174.237 32.2314 174.155 32.4512 173.991 32.627C173.827 32.8027 173.587 32.8906 173.271 32.8906C172.954 32.8906 172.714 32.8027 172.55 32.627C172.392 32.4512 172.313 32.2314 172.313 31.9678ZM178.779 34.4902L178.832 35.6855C179.558 34.7715 180.507 34.3145 181.679 34.3145C183.689 34.3145 184.703 35.4482 184.72 37.7158V44H183.094V37.707C183.088 37.0215 182.93 36.5146 182.62 36.1865C182.315 35.8584 181.837 35.6943 181.187 35.6943C180.66 35.6943 180.197 35.835 179.798 36.1162C179.4 36.3975 179.089 36.7666 178.867 37.2236V44H177.241V34.4902H178.779ZM190.387 39.5967L189.367 40.6602V44H187.741V30.5H189.367V38.665L190.237 37.6191L193.199 34.4902H195.177L191.476 38.4629L195.607 44H193.7L190.387 39.5967ZM210.86 41.7588L212.688 34.4902H214.314L211.546 44H210.227L207.916 36.793L205.666 44H204.347L201.588 34.4902H203.205L205.077 41.6094L207.292 34.4902H208.601L210.86 41.7588ZM218.302 44H216.676V34.4902H218.302V44ZM216.544 31.9678C216.544 31.7041 216.623 31.4814 216.781 31.2998C216.946 31.1182 217.186 31.0273 217.502 31.0273C217.819 31.0273 218.059 31.1182 218.223 31.2998C218.387 31.4814 218.469 31.7041 218.469 31.9678C218.469 32.2314 218.387 32.4512 218.223 32.627C218.059 32.8027 217.819 32.8906 217.502 32.8906C217.186 32.8906 216.946 32.8027 216.781 32.627C216.623 32.4512 216.544 32.2314 216.544 31.9678ZM223.678 32.1875V34.4902H225.454V35.7471H223.678V41.6445C223.678 42.0254 223.758 42.3125 223.916 42.5059C224.074 42.6934 224.343 42.7871 224.724 42.7871C224.912 42.7871 225.17 42.752 225.498 42.6816V44C225.07 44.1172 224.654 44.1758 224.25 44.1758C223.523 44.1758 222.975 43.9561 222.606 43.5166C222.237 43.0771 222.052 42.4531 222.052 41.6445V35.7471H220.321V34.4902H222.052V32.1875H223.678ZM229.547 35.6416C230.268 34.7568 231.205 34.3145 232.359 34.3145C234.369 34.3145 235.383 35.4482 235.401 37.7158V44H233.775V37.707C233.769 37.0215 233.61 36.5146 233.3 36.1865C232.995 35.8584 232.518 35.6943 231.867 35.6943C231.34 35.6943 230.877 35.835 230.479 36.1162C230.08 36.3975 229.77 36.7666 229.547 37.2236V44H227.921V30.5H229.547V35.6416ZM53.4365 55.1875V57.4902H55.2119V58.7471H53.4365V64.6445C53.4365 65.0254 53.5156 65.3125 53.6738 65.5059C53.832 65.6934 54.1016 65.7871 54.4824 65.7871C54.6699 65.7871 54.9277 65.752 55.2559 65.6816V67C54.8281 67.1172 54.4121 67.1758 54.0078 67.1758C53.2812 67.1758 52.7334 66.9561 52.3643 66.5166C51.9951 66.0771 51.8105 65.4531 51.8105 64.6445V58.7471H50.0791V57.4902H51.8105V55.1875H53.4365ZM59.3051 58.6416C60.0258 57.7568 60.9633 57.3145 62.1176 57.3145C64.1274 57.3145 65.1411 58.4482 65.1586 60.7158V67H63.5327V60.707C63.5268 60.0215 63.3686 59.5146 63.058 59.1865C62.7534 58.8584 62.2758 58.6943 61.6254 58.6943C61.0981 58.6943 60.6352 58.835 60.2368 59.1162C59.8383 59.3975 59.5278 59.7666 59.3051 60.2236V67H57.6791V53.5H59.3051V58.6416ZM72.0995 67.1758C70.8104 67.1758 69.7616 66.7539 68.953 65.9102C68.1444 65.0605 67.7401 63.9268 67.7401 62.5088V62.21C67.7401 61.2666 67.9188 60.4258 68.2763 59.6875C68.6395 58.9434 69.1434 58.3633 69.788 57.9473C70.4384 57.5254 71.1415 57.3145 71.8973 57.3145C73.1337 57.3145 74.0946 57.7217 74.7802 58.5361C75.4657 59.3506 75.8085 60.5166 75.8085 62.0342V62.7109H69.3661C69.3895 63.6484 69.662 64.4072 70.1835 64.9873C70.7108 65.5615 71.3788 65.8486 72.1874 65.8486C72.7616 65.8486 73.2479 65.7314 73.6464 65.4971C74.0448 65.2627 74.3934 64.9521 74.6923 64.5654L75.6854 65.3389C74.8886 66.5635 73.6932 67.1758 72.0995 67.1758ZM71.8973 58.6504C71.2411 58.6504 70.6903 58.8906 70.245 59.3711C69.7997 59.8457 69.5243 60.5137 69.4188 61.375H74.1825V61.252C74.1356 60.4258 73.913 59.7871 73.5145 59.3359C73.1161 58.8789 72.577 58.6504 71.8973 58.6504ZM83.7952 64.4775C83.7952 64.0381 83.6282 63.6982 83.2943 63.458C82.9661 63.2119 82.389 63.001 81.5628 62.8252C80.7425 62.6494 80.0892 62.4385 79.6029 62.1924C79.1224 61.9463 78.765 61.6533 78.5306 61.3135C78.3021 60.9736 78.1878 60.5693 78.1878 60.1006C78.1878 59.3213 78.5159 58.6621 79.1722 58.123C79.8343 57.584 80.678 57.3145 81.7034 57.3145C82.7816 57.3145 83.6546 57.5928 84.3226 58.1494C84.9964 58.7061 85.3333 59.418 85.3333 60.2852H83.6986C83.6986 59.8398 83.5081 59.4561 83.1273 59.1338C82.7523 58.8115 82.2777 58.6504 81.7034 58.6504C81.1116 58.6504 80.6488 58.7793 80.3148 59.0371C79.9808 59.2949 79.8138 59.6318 79.8138 60.0479C79.8138 60.4404 79.9691 60.7363 80.2796 60.9355C80.5902 61.1348 81.1497 61.3252 81.9583 61.5068C82.7728 61.6885 83.432 61.9053 83.9359 62.1572C84.4398 62.4092 84.8118 62.7139 85.0521 63.0713C85.2982 63.4229 85.4212 63.8535 85.4212 64.3633C85.4212 65.2129 85.0814 65.8955 84.4017 66.4111C83.722 66.9209 82.8402 67.1758 81.7562 67.1758C80.9945 67.1758 80.3206 67.041 79.7347 66.7715C79.1488 66.502 78.6888 66.127 78.3548 65.6465C78.0267 65.1602 77.8626 64.6357 77.8626 64.0732H79.4886C79.5179 64.6182 79.7347 65.0518 80.139 65.374C80.5491 65.6904 81.0882 65.8486 81.7562 65.8486C82.3714 65.8486 82.8636 65.7256 83.2327 65.4795C83.6077 65.2275 83.7952 64.8936 83.7952 64.4775ZM92.0457 67.1758C90.7566 67.1758 89.7078 66.7539 88.8992 65.9102C88.0906 65.0605 87.6863 63.9268 87.6863 62.5088V62.21C87.6863 61.2666 87.865 60.4258 88.2224 59.6875C88.5857 58.9434 89.0896 58.3633 89.7341 57.9473C90.3845 57.5254 91.0877 57.3145 91.8435 57.3145C93.0798 57.3145 94.0408 57.7217 94.7263 58.5361C95.4119 59.3506 95.7547 60.5166 95.7547 62.0342V62.7109H89.3123C89.3357 63.6484 89.6082 64.4072 90.1297 64.9873C90.657 65.5615 91.325 65.8486 92.1336 65.8486C92.7078 65.8486 93.1941 65.7314 93.5925 65.4971C93.991 65.2627 94.3396 64.9521 94.6384 64.5654L95.6316 65.3389C94.8347 66.5635 93.6394 67.1758 92.0457 67.1758ZM91.8435 58.6504C91.1873 58.6504 90.6365 58.8906 90.1912 59.3711C89.7459 59.8457 89.4705 60.5137 89.365 61.375H94.1287V61.252C94.0818 60.4258 93.8591 59.7871 93.4607 59.3359C93.0623 58.8789 92.5232 58.6504 91.8435 58.6504ZM111.262 62.3506C111.262 63.7979 110.931 64.9639 110.269 65.8486C109.607 66.7334 108.711 67.1758 107.58 67.1758C106.425 67.1758 105.517 66.8096 104.855 66.0771V70.6562H103.229V57.4902H104.714L104.794 58.5449C105.456 57.7246 106.376 57.3145 107.553 57.3145C108.696 57.3145 109.598 57.7451 110.26 58.6064C110.928 59.4678 111.262 60.666 111.262 62.2012V62.3506ZM109.636 62.166C109.636 61.0938 109.408 60.2471 108.951 59.626C108.494 59.0049 107.867 58.6943 107.07 58.6943C106.086 58.6943 105.347 59.1309 104.855 60.0039V64.5479C105.341 65.415 106.086 65.8486 107.088 65.8486C107.867 65.8486 108.485 65.541 108.942 64.9258C109.405 64.3047 109.636 63.3848 109.636 62.166ZM115.663 67H114.037V57.4902H115.663V67ZM113.905 54.9678C113.905 54.7041 113.984 54.4814 114.143 54.2998C114.307 54.1182 114.547 54.0273 114.863 54.0273C115.18 54.0273 115.42 54.1182 115.584 54.2998C115.748 54.4814 115.83 54.7041 115.83 54.9678C115.83 55.2314 115.748 55.4512 115.584 55.627C115.42 55.8027 115.18 55.8906 114.863 55.8906C114.547 55.8906 114.307 55.8027 114.143 55.627C113.984 55.4512 113.905 55.2314 113.905 54.9678ZM120.6 67H118.974V53.5H120.6V67ZM125.537 67H123.911V53.5H125.537V67ZM134.245 64.4775C134.245 64.0381 134.078 63.6982 133.744 63.458C133.415 63.2119 132.838 63.001 132.012 62.8252C131.192 62.6494 130.538 62.4385 130.052 62.1924C129.572 61.9463 129.214 61.6533 128.98 61.3135C128.751 60.9736 128.637 60.5693 128.637 60.1006C128.637 59.3213 128.965 58.6621 129.621 58.123C130.284 57.584 131.127 57.3145 132.153 57.3145C133.231 57.3145 134.104 57.5928 134.772 58.1494C135.446 58.7061 135.783 59.418 135.783 60.2852H134.148C134.148 59.8398 133.957 59.4561 133.577 59.1338C133.202 58.8115 132.727 58.6504 132.153 58.6504C131.561 58.6504 131.098 58.7793 130.764 59.0371C130.43 59.2949 130.263 59.6318 130.263 60.0479C130.263 60.4404 130.418 60.7363 130.729 60.9355C131.039 61.1348 131.599 61.3252 132.408 61.5068C133.222 61.6885 133.881 61.9053 134.385 62.1572C134.889 62.4092 135.261 62.7139 135.501 63.0713C135.747 63.4229 135.871 63.8535 135.871 64.3633C135.871 65.2129 135.531 65.8955 134.851 66.4111C134.171 66.9209 133.289 67.1758 132.205 67.1758C131.444 67.1758 130.77 67.041 130.184 66.7715C129.598 66.502 129.138 66.127 128.804 65.6465C128.476 65.1602 128.312 64.6357 128.312 64.0732H129.938C129.967 64.6182 130.184 65.0518 130.588 65.374C130.998 65.6904 131.537 65.8486 132.205 65.8486C132.821 65.8486 133.313 65.7256 133.682 65.4795C134.057 65.2275 134.245 64.8936 134.245 64.4775ZM140.456 63.3965C140.468 62.6992 140.547 62.1484 140.693 61.7441C140.84 61.3398 141.139 60.8916 141.59 60.3994L142.741 59.2129C143.233 58.6562 143.479 58.0586 143.479 57.4199C143.479 56.8047 143.318 56.3242 142.996 55.9785C142.674 55.627 142.205 55.4512 141.59 55.4512C140.992 55.4512 140.512 55.6094 140.148 55.9258C139.785 56.2422 139.603 56.667 139.603 57.2002H137.977C137.989 56.251 138.326 55.4863 138.988 54.9062C139.656 54.3203 140.523 54.0273 141.59 54.0273C142.697 54.0273 143.558 54.3262 144.174 54.9238C144.795 55.5156 145.105 56.3301 145.105 57.3672C145.105 58.3926 144.631 59.4033 143.681 60.3994L142.723 61.3486C142.296 61.8232 142.082 62.5059 142.082 63.3965H140.456ZM140.386 66.1826C140.386 65.9189 140.465 65.6992 140.623 65.5234C140.787 65.3418 141.027 65.251 141.344 65.251C141.66 65.251 141.9 65.3418 142.064 65.5234C142.228 65.6992 142.31 65.9189 142.31 66.1826C142.31 66.4463 142.228 66.666 142.064 66.8418C141.9 67.0117 141.66 67.0967 141.344 67.0967C141.027 67.0967 140.787 67.0117 140.623 66.8418C140.465 66.666 140.386 66.4463 140.386 66.1826Z" fill="#0B4A72"/>
</svg>
