<svg width="340" height="112" viewBox="0 0 340 112" fill="none" xmlns="http://www.w3.org/2000/svg">
<path fill-rule="evenodd" clip-rule="evenodd" d="M268.986 11.0385C284.322 11.1978 299.439 12.9722 314.338 16.3617C331.284 20.2169 342.094 33.5401 339.658 47.5695C336.926 63.3106 322.173 75.9629 302.819 79.1666C295.334 80.4053 286.829 81.5089 277.301 82.4773C234.018 86.8779 196.8 84.1825 174.817 84.1825C152.834 84.1825 155.829 83.3516 131.247 82.4773C106.667 81.6038 117.263 82.1797 81.9707 80.8831C69.0201 80.4069 56.0708 79.9087 43.1228 79.3886C41.7549 79.334 40.3927 79.2088 39.0448 79.0138C20.6038 81.0633 -4.12113 87.8873 0.583857 83.6259C3.98885 80.5404 9.21484 74.3896 16.2608 65.1718C13.896 61.3069 12.794 57.0213 13.0588 52.7189L14.0218 36.5548C14.8058 23.3869 27.9458 12.8741 44.3198 12.3158C69.2257 11.464 90.9997 11.0385 109.643 11.0385C147.95 11.0385 144.703 13.4355 186.111 13.4355C227.518 13.4355 230.804 10.642 268.986 11.0385Z" fill="#F8E2EE"/>
<path d="M53.665 31.2031L57.8486 41.6445L62.0322 31.2031H64.2207V44H62.5332V39.0166L62.6914 33.6377L58.4902 44H57.1982L53.0059 33.6641L53.1729 39.0166V44H51.4854V31.2031H53.665ZM70.6166 41.6182L72.8315 34.4902H74.5717L70.7485 45.4678C70.1567 47.0498 69.2162 47.8408 67.9272 47.8408L67.6196 47.8145L67.0131 47.7002V46.3818L67.4526 46.417C68.0034 46.417 68.4311 46.3057 68.7358 46.083C69.0463 45.8604 69.3012 45.4531 69.5004 44.8613L69.8608 43.8945L66.4682 34.4902H68.2436L70.6166 41.6182ZM83.1448 34.4902L83.1888 35.5449C83.8861 34.7246 84.8265 34.3145 86.0101 34.3145C87.3402 34.3145 88.2454 34.8242 88.7259 35.8438C89.0423 35.3867 89.4525 35.0176 89.9564 34.7363C90.4661 34.4551 91.0667 34.3145 91.7581 34.3145C93.8441 34.3145 94.9046 35.4189 94.9398 37.6279V44H93.3138V37.7246C93.3138 37.0449 93.1585 36.5381 92.848 36.2041C92.5374 35.8643 92.0159 35.6943 91.2835 35.6943C90.68 35.6943 90.179 35.876 89.7806 36.2393C89.3821 36.5967 89.1507 37.0801 89.0863 37.6895V44H87.4515V37.7686C87.4515 36.3857 86.7747 35.6943 85.4212 35.6943C84.3548 35.6943 83.6253 36.1484 83.2327 37.0566V44H81.6068V34.4902H83.1448ZM101.907 44.1758C100.618 44.1758 99.5691 43.7539 98.7605 42.9102C97.9519 42.0605 97.5476 40.9268 97.5476 39.5088V39.21C97.5476 38.2666 97.7263 37.4258 98.0838 36.6875C98.447 35.9434 98.9509 35.3633 99.5955 34.9473C100.246 34.5254 100.949 34.3145 101.705 34.3145C102.941 34.3145 103.902 34.7217 104.588 35.5361C105.273 36.3506 105.616 37.5166 105.616 39.0342V39.7109H99.1736C99.197 40.6484 99.4695 41.4072 99.991 41.9873C100.518 42.5615 101.186 42.8486 101.995 42.8486C102.569 42.8486 103.055 42.7314 103.454 42.4971C103.852 42.2627 104.201 41.9521 104.5 41.5654L105.493 42.3389C104.696 43.5635 103.501 44.1758 101.907 44.1758ZM101.705 35.6504C101.049 35.6504 100.498 35.8906 100.053 36.3711C99.6072 36.8457 99.3318 37.5137 99.2263 38.375H103.99V38.252C103.943 37.4258 103.72 36.7871 103.322 36.3359C102.924 35.8789 102.385 35.6504 101.705 35.6504ZM107.67 39.166C107.67 37.707 108.016 36.5352 108.707 35.6504C109.399 34.7598 110.304 34.3145 111.423 34.3145C112.536 34.3145 113.418 34.6953 114.069 35.457V30.5H115.695V44H114.2L114.121 42.9805C113.471 43.7773 112.566 44.1758 111.405 44.1758C110.304 44.1758 109.404 43.7246 108.707 42.8223C108.016 41.9199 107.67 40.7422 107.67 39.2891V39.166ZM109.296 39.3506C109.296 40.4287 109.519 41.2725 109.964 41.8818C110.409 42.4912 111.025 42.7959 111.81 42.7959C112.841 42.7959 113.594 42.333 114.069 41.4072V37.0391C113.582 36.1426 112.835 35.6943 111.827 35.6943C111.03 35.6943 110.409 36.002 109.964 36.6172C109.519 37.2324 109.296 38.1436 109.296 39.3506ZM120.552 44H118.926V34.4902H120.552V44ZM118.795 31.9678C118.795 31.7041 118.874 31.4814 119.032 31.2998C119.196 31.1182 119.436 31.0273 119.753 31.0273C120.069 31.0273 120.309 31.1182 120.473 31.2998C120.637 31.4814 120.719 31.7041 120.719 31.9678C120.719 32.2314 120.637 32.4512 120.473 32.627C120.309 32.8027 120.069 32.8906 119.753 32.8906C119.436 32.8906 119.196 32.8027 119.032 32.627C118.874 32.4512 118.795 32.2314 118.795 31.9678ZM127.537 42.8486C128.117 42.8486 128.624 42.6729 129.058 42.3213C129.491 41.9697 129.732 41.5303 129.778 41.0029H131.316C131.287 41.5479 131.1 42.0664 130.754 42.5586C130.408 43.0508 129.945 43.4434 129.365 43.7363C128.791 44.0293 128.182 44.1758 127.537 44.1758C126.242 44.1758 125.211 43.7451 124.443 42.8838C123.682 42.0166 123.301 40.833 123.301 39.333V39.0605C123.301 38.1348 123.471 37.3115 123.811 36.5908C124.15 35.8701 124.637 35.3105 125.27 34.9121C125.908 34.5137 126.661 34.3145 127.528 34.3145C128.595 34.3145 129.48 34.6338 130.183 35.2725C130.892 35.9111 131.27 36.7402 131.316 37.7598H129.778C129.732 37.1445 129.497 36.6406 129.075 36.248C128.659 35.8496 128.144 35.6504 127.528 35.6504C126.702 35.6504 126.061 35.9492 125.604 36.5469C125.152 37.1387 124.927 37.9971 124.927 39.1221V39.4297C124.927 40.5254 125.152 41.3691 125.604 41.9609C126.055 42.5527 126.699 42.8486 127.537 42.8486ZM135.471 44H133.845V34.4902H135.471V44ZM133.713 31.9678C133.713 31.7041 133.793 31.4814 133.951 31.2998C134.115 31.1182 134.355 31.0273 134.671 31.0273C134.988 31.0273 135.228 31.1182 135.392 31.2998C135.556 31.4814 135.638 31.7041 135.638 31.9678C135.638 32.2314 135.556 32.4512 135.392 32.627C135.228 32.8027 134.988 32.8906 134.671 32.8906C134.355 32.8906 134.115 32.8027 133.951 32.627C133.793 32.4512 133.713 32.2314 133.713 31.9678ZM140.18 34.4902L140.232 35.6855C140.959 34.7715 141.908 34.3145 143.08 34.3145C145.09 34.3145 146.103 35.4482 146.121 37.7158V44H144.495V37.707C144.489 37.0215 144.331 36.5146 144.02 36.1865C143.716 35.8584 143.238 35.6943 142.588 35.6943C142.061 35.6943 141.598 35.835 141.199 36.1162C140.801 36.3975 140.49 36.7666 140.268 37.2236V44H138.642V34.4902H140.18ZM153.079 44.1758C151.79 44.1758 150.742 43.7539 149.933 42.9102C149.124 42.0605 148.72 40.9268 148.72 39.5088V39.21C148.72 38.2666 148.899 37.4258 149.256 36.6875C149.62 35.9434 150.123 35.3633 150.768 34.9473C151.418 34.5254 152.121 34.3145 152.877 34.3145C154.114 34.3145 155.075 34.7217 155.76 35.5361C156.446 36.3506 156.788 37.5166 156.788 39.0342V39.7109H150.346C150.37 40.6484 150.642 41.4072 151.163 41.9873C151.691 42.5615 152.359 42.8486 153.167 42.8486C153.742 42.8486 154.228 42.7314 154.626 42.4971C155.025 42.2627 155.373 41.9521 155.672 41.5654L156.665 42.3389C155.869 43.5635 154.673 44.1758 153.079 44.1758ZM152.877 35.6504C152.221 35.6504 151.67 35.8906 151.225 36.3711C150.78 36.8457 150.504 37.5137 150.399 38.375H155.162V38.252C155.116 37.4258 154.893 36.7871 154.495 36.3359C154.096 35.8789 153.557 35.6504 152.877 35.6504ZM163.867 39.166C163.867 37.707 164.213 36.5352 164.905 35.6504C165.596 34.7598 166.501 34.3145 167.62 34.3145C168.734 34.3145 169.616 34.6953 170.266 35.457V30.5H171.892V44H170.398L170.319 42.9805C169.668 43.7773 168.763 44.1758 167.603 44.1758C166.501 44.1758 165.602 43.7246 164.905 42.8223C164.213 41.9199 163.867 40.7422 163.867 39.2891V39.166ZM165.493 39.3506C165.493 40.4287 165.716 41.2725 166.161 41.8818C166.607 42.4912 167.222 42.7959 168.007 42.7959C169.038 42.7959 169.791 42.333 170.266 41.4072V37.0391C169.78 36.1426 169.033 35.6943 168.025 35.6943C167.228 35.6943 166.607 36.002 166.161 36.6172C165.716 37.2324 165.493 38.1436 165.493 39.3506ZM174.552 39.1572C174.552 38.2256 174.734 37.3877 175.097 36.6436C175.467 35.8994 175.976 35.3252 176.627 34.9209C177.283 34.5166 178.03 34.3145 178.868 34.3145C180.163 34.3145 181.209 34.7627 182.006 35.6592C182.808 36.5557 183.21 37.748 183.21 39.2363V39.3506C183.21 40.2764 183.031 41.1084 182.674 41.8467C182.322 42.5791 181.815 43.1504 181.153 43.5605C180.497 43.9707 179.741 44.1758 178.885 44.1758C177.596 44.1758 176.551 43.7275 175.748 42.8311C174.951 41.9346 174.552 40.748 174.552 39.2715V39.1572ZM176.187 39.3506C176.187 40.4053 176.43 41.252 176.917 41.8906C177.409 42.5293 178.065 42.8486 178.885 42.8486C179.712 42.8486 180.368 42.5264 180.854 41.8818C181.341 41.2314 181.584 40.3232 181.584 39.1572C181.584 38.1143 181.335 37.2705 180.837 36.626C180.344 35.9756 179.688 35.6504 178.868 35.6504C178.065 35.6504 177.418 35.9697 176.926 36.6084C176.433 37.2471 176.187 38.1611 176.187 39.3506ZM189.755 44.1758C188.466 44.1758 187.417 43.7539 186.609 42.9102C185.8 42.0605 185.396 40.9268 185.396 39.5088V39.21C185.396 38.2666 185.574 37.4258 185.932 36.6875C186.295 35.9434 186.799 35.3633 187.444 34.9473C188.094 34.5254 188.797 34.3145 189.553 34.3145C190.789 34.3145 191.75 34.7217 192.436 35.5361C193.121 36.3506 193.464 37.5166 193.464 39.0342V39.7109H187.022C187.045 40.6484 187.318 41.4072 187.839 41.9873C188.366 42.5615 189.034 42.8486 189.843 42.8486C190.417 42.8486 190.903 42.7314 191.302 42.4971C191.7 42.2627 192.049 41.9521 192.348 41.5654L193.341 42.3389C192.544 43.5635 191.349 44.1758 189.755 44.1758ZM189.553 35.6504C188.897 35.6504 188.346 35.8906 187.901 36.3711C187.455 36.8457 187.18 37.5137 187.074 38.375H191.838V38.252C191.791 37.4258 191.569 36.7871 191.17 36.3359C190.772 35.8789 190.233 35.6504 189.553 35.6504ZM201.451 41.4775C201.451 41.0381 201.284 40.6982 200.95 40.458C200.622 40.2119 200.045 40.001 199.218 39.8252C198.398 39.6494 197.745 39.4385 197.258 39.1924C196.778 38.9463 196.421 38.6533 196.186 38.3135C195.958 37.9736 195.843 37.5693 195.843 37.1006C195.843 36.3213 196.171 35.6621 196.828 35.123C197.49 34.584 198.334 34.3145 199.359 34.3145C200.437 34.3145 201.31 34.5928 201.978 35.1494C202.652 35.7061 202.989 36.418 202.989 37.2852H201.354C201.354 36.8398 201.164 36.4561 200.783 36.1338C200.408 35.8115 199.933 35.6504 199.359 35.6504C198.767 35.6504 198.304 35.7793 197.97 36.0371C197.636 36.2949 197.469 36.6318 197.469 37.0479C197.469 37.4404 197.625 37.7363 197.935 37.9355C198.246 38.1348 198.805 38.3252 199.614 38.5068C200.428 38.6885 201.087 38.9053 201.591 39.1572C202.095 39.4092 202.467 39.7139 202.708 40.0713C202.954 40.4229 203.077 40.8535 203.077 41.3633C203.077 42.2129 202.737 42.8955 202.057 43.4111C201.378 43.9209 200.496 44.1758 199.412 44.1758C198.65 44.1758 197.976 44.041 197.39 43.7715C196.804 43.502 196.344 43.127 196.01 42.6465C195.682 42.1602 195.518 41.6357 195.518 41.0732H197.144C197.173 41.6182 197.39 42.0518 197.795 42.374C198.205 42.6904 198.744 42.8486 199.412 42.8486C200.027 42.8486 200.519 42.7256 200.888 42.4795C201.263 42.2275 201.451 41.8936 201.451 41.4775ZM207.293 34.4902L207.346 35.6855C208.072 34.7715 209.022 34.3145 210.193 34.3145C212.203 34.3145 213.217 35.4482 213.234 37.7158V44H211.608V37.707C211.603 37.0215 211.444 36.5146 211.134 36.1865C210.829 35.8584 210.352 35.6943 209.701 35.6943C209.174 35.6943 208.711 35.835 208.313 36.1162C207.914 36.3975 207.604 36.7666 207.381 37.2236V44H205.755V34.4902H207.293ZM215.658 34.8066L214.735 34.1738C215.28 33.4121 215.561 32.6094 215.579 31.7656V30.5H217.187V31.6426C217.181 32.2285 217.035 32.8145 216.748 33.4004C216.466 33.9805 216.103 34.4492 215.658 34.8066ZM221.913 32.1875V34.4902H223.688V35.7471H221.913V41.6445C221.913 42.0254 221.992 42.3125 222.15 42.5059C222.309 42.6934 222.578 42.7871 222.959 42.7871C223.146 42.7871 223.404 42.752 223.732 42.6816V44C223.305 44.1172 222.889 44.1758 222.484 44.1758C221.758 44.1758 221.21 43.9561 220.841 43.5166C220.472 43.0771 220.287 42.4531 220.287 41.6445V35.7471H218.556V34.4902H220.287V32.1875H221.913ZM236.718 41.4775C236.718 41.0381 236.551 40.6982 236.217 40.458C235.888 40.2119 235.311 40.001 234.485 39.8252C233.665 39.6494 233.012 39.4385 232.525 39.1924C232.045 38.9463 231.687 38.6533 231.453 38.3135C231.224 37.9736 231.11 37.5693 231.11 37.1006C231.11 36.3213 231.438 35.6621 232.095 35.123C232.757 34.584 233.6 34.3145 234.626 34.3145C235.704 34.3145 236.577 34.5928 237.245 35.1494C237.919 35.7061 238.256 36.418 238.256 37.2852H236.621C236.621 36.8398 236.43 36.4561 236.05 36.1338C235.675 35.8115 235.2 35.6504 234.626 35.6504C234.034 35.6504 233.571 35.7793 233.237 36.0371C232.903 36.2949 232.736 36.6318 232.736 37.0479C232.736 37.4404 232.891 37.7363 233.202 37.9355C233.512 38.1348 234.072 38.3252 234.881 38.5068C235.695 38.6885 236.354 38.9053 236.858 39.1572C237.362 39.4092 237.734 39.7139 237.974 40.0713C238.221 40.4229 238.344 40.8535 238.344 41.3633C238.344 42.2129 238.004 42.8955 237.324 43.4111C236.644 43.9209 235.762 44.1758 234.679 44.1758C233.917 44.1758 233.243 44.041 232.657 43.7715C232.071 43.502 231.611 43.127 231.277 42.6465C230.949 42.1602 230.785 41.6357 230.785 41.0732H232.411C232.44 41.6182 232.657 42.0518 233.061 42.374C233.471 42.6904 234.011 42.8486 234.679 42.8486C235.294 42.8486 235.786 42.7256 236.155 42.4795C236.53 42.2275 236.718 41.8936 236.718 41.4775ZM244.968 44.1758C243.679 44.1758 242.63 43.7539 241.822 42.9102C241.013 42.0605 240.609 40.9268 240.609 39.5088V39.21C240.609 38.2666 240.787 37.4258 241.145 36.6875C241.508 35.9434 242.012 35.3633 242.656 34.9473C243.307 34.5254 244.01 34.3145 244.766 34.3145C246.002 34.3145 246.963 34.7217 247.649 35.5361C248.334 36.3506 248.677 37.5166 248.677 39.0342V39.7109H242.235C242.258 40.6484 242.531 41.4072 243.052 41.9873C243.579 42.5615 244.247 42.8486 245.056 42.8486C245.63 42.8486 246.116 42.7314 246.515 42.4971C246.913 42.2627 247.262 41.9521 247.561 41.5654L248.554 42.3389C247.757 43.5635 246.562 44.1758 244.968 44.1758ZM244.766 35.6504C244.11 35.6504 243.559 35.8906 243.114 36.3711C242.668 36.8457 242.393 37.5137 242.287 38.375H247.051V38.252C247.004 37.4258 246.781 36.7871 246.383 36.3359C245.985 35.8789 245.446 35.6504 244.766 35.6504ZM255.073 44.1758C253.784 44.1758 252.735 43.7539 251.926 42.9102C251.118 42.0605 250.714 40.9268 250.714 39.5088V39.21C250.714 38.2666 250.892 37.4258 251.25 36.6875C251.613 35.9434 252.117 35.3633 252.761 34.9473C253.412 34.5254 254.115 34.3145 254.871 34.3145C256.107 34.3145 257.068 34.7217 257.754 35.5361C258.439 36.3506 258.782 37.5166 258.782 39.0342V39.7109H252.34C252.363 40.6484 252.635 41.4072 253.157 41.9873C253.684 42.5615 254.352 42.8486 255.161 42.8486C255.735 42.8486 256.221 42.7314 256.62 42.4971C257.018 42.2627 257.367 41.9521 257.666 41.5654L258.659 42.3389C257.862 43.5635 256.667 44.1758 255.073 44.1758ZM254.871 35.6504C254.215 35.6504 253.664 35.8906 253.218 36.3711C252.773 36.8457 252.498 37.5137 252.392 38.375H257.156V38.252C257.109 37.4258 256.886 36.7871 256.488 36.3359C256.09 35.8789 255.55 35.6504 254.871 35.6504ZM262.761 34.4902L262.805 35.5449C263.502 34.7246 264.443 34.3145 265.626 34.3145C266.956 34.3145 267.861 34.8242 268.342 35.8438C268.658 35.3867 269.068 35.0176 269.572 34.7363C270.082 34.4551 270.683 34.3145 271.374 34.3145C273.46 34.3145 274.521 35.4189 274.556 37.6279V44H272.93V37.7246C272.93 37.0449 272.775 36.5381 272.464 36.2041C272.153 35.8643 271.632 35.6943 270.9 35.6943C270.296 35.6943 269.795 35.876 269.397 36.2393C268.998 36.5967 268.767 37.0801 268.702 37.6895V44H267.068V37.7686C267.068 36.3857 266.391 35.6943 265.037 35.6943C263.971 35.6943 263.241 36.1484 262.849 37.0566V44H261.223V34.4902H262.761ZM53.4365 55.1875V57.4902H55.2119V58.7471H53.4365V64.6445C53.4365 65.0254 53.5156 65.3125 53.6738 65.5059C53.832 65.6934 54.1016 65.7871 54.4824 65.7871C54.6699 65.7871 54.9277 65.752 55.2559 65.6816V67C54.8281 67.1172 54.4121 67.1758 54.0078 67.1758C53.2812 67.1758 52.7334 66.9561 52.3643 66.5166C51.9951 66.0771 51.8105 65.4531 51.8105 64.6445V58.7471H50.0791V57.4902H51.8105V55.1875H53.4365ZM57.0727 62.1572C57.0727 61.2256 57.2543 60.3877 57.6176 59.6436C57.9868 58.8994 58.4965 58.3252 59.1469 57.9209C59.8032 57.5166 60.5502 57.3145 61.3881 57.3145C62.683 57.3145 63.7289 57.7627 64.5258 58.6592C65.3286 59.5557 65.7299 60.748 65.7299 62.2363V62.3506C65.7299 63.2764 65.5512 64.1084 65.1938 64.8467C64.8422 65.5791 64.3354 66.1504 63.6733 66.5605C63.017 66.9707 62.2612 67.1758 61.4057 67.1758C60.1166 67.1758 59.0707 66.7275 58.268 65.8311C57.4711 64.9346 57.0727 63.748 57.0727 62.2715V62.1572ZM58.7075 62.3506C58.7075 63.4053 58.9506 64.252 59.437 64.8906C59.9291 65.5293 60.5854 65.8486 61.4057 65.8486C62.2319 65.8486 62.8881 65.5264 63.3745 64.8818C63.8608 64.2314 64.1039 63.3232 64.1039 62.1572C64.1039 61.1143 63.8549 60.2705 63.3569 59.626C62.8647 58.9756 62.2084 58.6504 61.3881 58.6504C60.5854 58.6504 59.9379 58.9697 59.4457 59.6084C58.9536 60.2471 58.7075 61.1611 58.7075 62.3506ZM81.4046 62.3506C81.4046 63.8037 81.0706 64.9727 80.4027 65.8574C79.7347 66.7363 78.8382 67.1758 77.7132 67.1758C76.512 67.1758 75.5833 66.751 74.9271 65.9014L74.848 67H73.3538V53.5H74.9798V58.5361C75.6361 57.7217 76.5413 57.3145 77.6956 57.3145C78.8499 57.3145 79.7552 57.751 80.4114 58.624C81.0736 59.4971 81.4046 60.6924 81.4046 62.21V62.3506ZM79.7786 62.166C79.7786 61.0586 79.5648 60.2031 79.137 59.5996C78.7093 58.9961 78.0941 58.6943 77.2913 58.6943C76.2191 58.6943 75.4486 59.1924 74.9798 60.1885V64.3018C75.4779 65.2979 76.2542 65.7959 77.3089 65.7959C78.0882 65.7959 78.6946 65.4941 79.1282 64.8906C79.5618 64.2871 79.7786 63.3789 79.7786 62.166ZM87.9675 67.1758C86.6785 67.1758 85.6297 66.7539 84.8211 65.9102C84.0125 65.0605 83.6082 63.9268 83.6082 62.5088V62.21C83.6082 61.2666 83.7869 60.4258 84.1443 59.6875C84.5076 58.9434 85.0115 58.3633 85.656 57.9473C86.3064 57.5254 87.0095 57.3145 87.7654 57.3145C89.0017 57.3145 89.9627 57.7217 90.6482 58.5361C91.3338 59.3506 91.6765 60.5166 91.6765 62.0342V62.7109H85.2341C85.2576 63.6484 85.53 64.4072 86.0515 64.9873C86.5789 65.5615 87.2468 65.8486 88.0554 65.8486C88.6297 65.8486 89.116 65.7314 89.5144 65.4971C89.9129 65.2627 90.2615 64.9521 90.5603 64.5654L91.5535 65.3389C90.7566 66.5635 89.5613 67.1758 87.9675 67.1758ZM87.7654 58.6504C87.1091 58.6504 86.5584 58.8906 86.113 59.3711C85.6677 59.8457 85.3923 60.5137 85.2869 61.375H90.0505V61.252C90.0037 60.4258 89.781 59.7871 89.3826 59.3359C88.9841 58.8789 88.4451 58.6504 87.7654 58.6504ZM107.571 64.7588L109.399 57.4902H111.025L108.256 67H106.938L104.627 59.793L102.377 67H101.058L98.2985 57.4902H99.9157L101.788 64.6094L104.003 57.4902H105.312L107.571 64.7588ZM112.816 62.1572C112.816 61.2256 112.997 60.3877 113.36 59.6436C113.73 58.8994 114.239 58.3252 114.89 57.9209C115.546 57.5166 116.293 57.3145 117.131 57.3145C118.426 57.3145 119.472 57.7627 120.269 58.6592C121.071 59.5557 121.473 60.748 121.473 62.2363V62.3506C121.473 63.2764 121.294 64.1084 120.937 64.8467C120.585 65.5791 120.078 66.1504 119.416 66.5605C118.76 66.9707 118.004 67.1758 117.149 67.1758C115.859 67.1758 114.814 66.7275 114.011 65.8311C113.214 64.9346 112.816 63.748 112.816 62.2715V62.1572ZM114.45 62.3506C114.45 63.4053 114.693 64.252 115.18 64.8906C115.672 65.5293 116.328 65.8486 117.149 65.8486C117.975 65.8486 118.631 65.5264 119.117 64.8818C119.604 64.2314 119.847 63.3232 119.847 62.1572C119.847 61.1143 119.598 60.2705 119.1 59.626C118.607 58.9756 117.951 58.6504 117.131 58.6504C116.328 58.6504 115.681 58.9697 115.189 59.6084C114.696 60.2471 114.45 61.1611 114.45 62.3506ZM128.668 58.9492C128.422 58.9082 128.156 58.8877 127.869 58.8877C126.802 58.8877 126.079 59.3418 125.698 60.25V67H124.072V57.4902H125.654L125.68 58.5889C126.213 57.7393 126.969 57.3145 127.948 57.3145C128.264 57.3145 128.504 57.3555 128.668 57.4375V58.9492ZM133.386 62.5967L132.366 63.6602V67H130.74V53.5H132.366V61.665L133.236 60.6191L136.198 57.4902H138.176L134.476 61.4629L138.606 67H136.699L133.386 62.5967ZM142.181 67H140.555V57.4902H142.181V67ZM140.423 54.9678C140.423 54.7041 140.502 54.4814 140.661 54.2998C140.825 54.1182 141.065 54.0273 141.381 54.0273C141.698 54.0273 141.938 54.1182 142.102 54.2998C142.266 54.4814 142.348 54.7041 142.348 54.9678C142.348 55.2314 142.266 55.4512 142.102 55.627C141.938 55.8027 141.698 55.8906 141.381 55.8906C141.065 55.8906 140.825 55.8027 140.661 55.627C140.502 55.4512 140.423 55.2314 140.423 54.9678ZM146.889 57.4902L146.942 58.6855C147.669 57.7715 148.618 57.3145 149.79 57.3145C151.8 57.3145 152.813 58.4482 152.831 60.7158V67H151.205V60.707C151.199 60.0215 151.041 59.5146 150.73 59.1865C150.426 58.8584 149.948 58.6943 149.298 58.6943C148.77 58.6943 148.307 58.835 147.909 59.1162C147.511 59.3975 147.2 59.7666 146.977 60.2236V67H145.351V57.4902H146.889ZM155.456 62.166C155.456 60.6836 155.799 59.5059 156.485 58.6328C157.17 57.7539 158.078 57.3145 159.209 57.3145C160.369 57.3145 161.275 57.7246 161.925 58.5449L162.004 57.4902H163.49V66.7715C163.49 68.002 163.123 68.9717 162.391 69.6807C161.664 70.3896 160.686 70.7441 159.455 70.7441C158.77 70.7441 158.099 70.5977 157.443 70.3047C156.786 70.0117 156.285 69.6104 155.94 69.1006L156.783 68.125C157.481 68.9863 158.333 69.417 159.341 69.417C160.132 69.417 160.747 69.1943 161.187 68.749C161.632 68.3037 161.855 67.6768 161.855 66.8682V66.0508C161.204 66.8008 160.317 67.1758 159.192 67.1758C158.078 67.1758 157.176 66.7275 156.485 65.8311C155.799 64.9346 155.456 63.7129 155.456 62.166ZM157.091 62.3506C157.091 63.4229 157.311 64.2666 157.75 64.8818C158.19 65.4912 158.805 65.7959 159.596 65.7959C160.621 65.7959 161.374 65.3301 161.855 64.3984V60.0566C161.357 59.1484 160.61 58.6943 159.614 58.6943C158.823 58.6943 158.204 59.002 157.759 59.6172C157.314 60.2324 157.091 61.1436 157.091 62.3506ZM166.546 66.1475C166.546 65.8662 166.628 65.6318 166.792 65.4443C166.962 65.2568 167.214 65.1631 167.548 65.1631C167.882 65.1631 168.134 65.2568 168.303 65.4443C168.479 65.6318 168.567 65.8662 168.567 66.1475C168.567 66.417 168.479 66.6426 168.303 66.8242C168.134 67.0059 167.882 67.0967 167.548 67.0967C167.214 67.0967 166.962 67.0059 166.792 66.8242C166.628 66.6426 166.546 66.417 166.546 66.1475Z" fill="#0B4A72"/>
</svg>
