<svg width="340" height="112" viewBox="0 0 340 112" fill="none" xmlns="http://www.w3.org/2000/svg">
<path fill-rule="evenodd" clip-rule="evenodd" d="M64.9566 18.0339C50.9286 18.1738 37.1011 19.7323 23.4729 22.7096C7.97232 26.096 -1.91562 37.7988 0.312592 50.1219C2.81155 63.9485 16.3062 75.062 34.0094 77.8761C40.8559 78.9641 48.6355 79.9335 57.3508 80.7841C96.9419 84.6495 130.986 82.2819 151.094 82.2819C171.202 82.2819 168.463 81.5521 190.948 80.7841C213.431 80.0168 203.739 80.5227 236.021 79.3838C247.867 78.9655 259.712 78.5279 271.555 78.0711C272.807 78.0231 274.053 77.9132 275.285 77.7418C292.154 79.5421 314.77 85.5362 310.466 81.793C307.351 79.0828 302.571 73.6801 296.126 65.5833C298.289 62.1885 299.297 58.4241 299.055 54.645L298.174 40.4468C297.457 28.8804 285.438 19.6461 270.46 19.1558C247.679 18.4076 227.762 18.0339 210.709 18.0339C175.67 18.0339 178.64 20.1393 140.764 20.1393C102.888 20.1393 99.8818 17.6855 64.9566 18.0339Z" fill="#D7E0E9"/>
<path d="M53.2959 44H51.6084V31.2031H53.2959V44ZM63.3456 35.6416C64.0663 34.7568 65.0038 34.3145 66.1581 34.3145C68.1679 34.3145 69.1815 35.4482 69.1991 37.7158V44H67.5731V37.707C67.5673 37.0215 67.4091 36.5146 67.0985 36.1865C66.7938 35.8584 66.3163 35.6943 65.6659 35.6943C65.1386 35.6943 64.6757 35.835 64.2772 36.1162C63.8788 36.3975 63.5682 36.7666 63.3456 37.2236V44H61.7196V30.5H63.3456V35.6416ZM78.0648 44C77.971 43.8125 77.8948 43.4785 77.8363 42.998C77.0804 43.7832 76.178 44.1758 75.1292 44.1758C74.1917 44.1758 73.4212 43.9121 72.8177 43.3848C72.22 42.8516 71.9212 42.1777 71.9212 41.3633C71.9212 40.373 72.2962 39.6055 73.0462 39.0605C73.8021 38.5098 74.8626 38.2344 76.2279 38.2344H77.8099V37.4873C77.8099 36.9189 77.64 36.4678 77.3001 36.1338C76.9603 35.7939 76.4593 35.624 75.7972 35.624C75.2171 35.624 74.7308 35.7705 74.3382 36.0635C73.9456 36.3564 73.7493 36.7109 73.7493 37.127H72.1146C72.1146 36.6523 72.2816 36.1953 72.6155 35.7559C72.9554 35.3105 73.4124 34.959 73.9866 34.7012C74.5667 34.4434 75.2025 34.3145 75.8939 34.3145C76.9896 34.3145 77.848 34.5898 78.4691 35.1406C79.0902 35.6855 79.4124 36.4385 79.4359 37.3994V41.7764C79.4359 42.6494 79.5472 43.3438 79.7698 43.8594V44H78.0648ZM75.3665 42.7607C75.8763 42.7607 76.3597 42.6289 76.8167 42.3652C77.2738 42.1016 77.6048 41.7588 77.8099 41.3369V39.3857H76.5355C74.5433 39.3857 73.5472 39.9688 73.5472 41.1348C73.5472 41.6445 73.7171 42.043 74.057 42.3301C74.3968 42.6172 74.8333 42.7607 75.3665 42.7607ZM85.5418 41.7939L87.8972 34.4902H89.5584L86.1482 44H84.9089L81.4636 34.4902H83.1248L85.5418 41.7939ZM95.5061 44.1758C94.217 44.1758 93.1682 43.7539 92.3596 42.9102C91.551 42.0605 91.1467 40.9268 91.1467 39.5088V39.21C91.1467 38.2666 91.3254 37.4258 91.6828 36.6875C92.0461 35.9434 92.55 35.3633 93.1945 34.9473C93.8449 34.5254 94.548 34.3145 95.3039 34.3145C96.5402 34.3145 97.5012 34.7217 98.1867 35.5361C98.8723 36.3506 99.215 37.5166 99.215 39.0342V39.7109H92.7727C92.7961 40.6484 93.0686 41.4072 93.59 41.9873C94.1174 42.5615 94.7854 42.8486 95.5939 42.8486C96.1682 42.8486 96.6545 42.7314 97.0529 42.4971C97.4514 42.2627 97.8 41.9521 98.0988 41.5654L99.092 42.3389C98.2951 43.5635 97.0998 44.1758 95.5061 44.1758ZM95.3039 35.6504C94.6477 35.6504 94.0969 35.8906 93.6516 36.3711C93.2062 36.8457 92.9309 37.5137 92.8254 38.375H97.5891V38.252C97.5422 37.4258 97.3195 36.7871 96.9211 36.3359C96.5227 35.8789 95.9836 35.6504 95.3039 35.6504ZM112.561 44C112.467 43.8125 112.391 43.4785 112.332 42.998C111.576 43.7832 110.674 44.1758 109.625 44.1758C108.688 44.1758 107.917 43.9121 107.314 43.3848C106.716 42.8516 106.417 42.1777 106.417 41.3633C106.417 40.373 106.792 39.6055 107.542 39.0605C108.298 38.5098 109.358 38.2344 110.724 38.2344H112.306V37.4873C112.306 36.9189 112.136 36.4678 111.796 36.1338C111.456 35.7939 110.955 35.624 110.293 35.624C109.713 35.624 109.227 35.7705 108.834 36.0635C108.441 36.3564 108.245 36.7109 108.245 37.127H106.61C106.61 36.6523 106.777 36.1953 107.111 35.7559C107.451 35.3105 107.908 34.959 108.482 34.7012C109.063 34.4434 109.698 34.3145 110.39 34.3145C111.485 34.3145 112.344 34.5898 112.965 35.1406C113.586 35.6855 113.908 36.4385 113.932 37.3994V41.7764C113.932 42.6494 114.043 43.3438 114.266 43.8594V44H112.561ZM109.862 42.7607C110.372 42.7607 110.856 42.6289 111.313 42.3652C111.77 42.1016 112.101 41.7588 112.306 41.3369V39.3857H111.031C109.039 39.3857 108.043 39.9688 108.043 41.1348C108.043 41.6445 108.213 42.043 108.553 42.3301C108.893 42.6172 109.329 42.7607 109.862 42.7607ZM123.691 35.6416C124.412 34.7568 125.35 34.3145 126.504 34.3145C128.514 34.3145 129.527 35.4482 129.545 37.7158V44H127.919V37.707C127.913 37.0215 127.755 36.5146 127.444 36.1865C127.14 35.8584 126.662 35.6943 126.012 35.6943C125.484 35.6943 125.021 35.835 124.623 36.1162C124.225 36.3975 123.914 36.7666 123.691 37.2236V44H122.065V30.5H123.691V35.6416ZM136.486 44.1758C135.197 44.1758 134.148 43.7539 133.339 42.9102C132.531 42.0605 132.126 40.9268 132.126 39.5088V39.21C132.126 38.2666 132.305 37.4258 132.662 36.6875C133.026 35.9434 133.53 35.3633 134.174 34.9473C134.825 34.5254 135.528 34.3145 136.284 34.3145C137.52 34.3145 138.481 34.7217 139.166 35.5361C139.852 36.3506 140.195 37.5166 140.195 39.0342V39.7109H133.752C133.776 40.6484 134.048 41.4072 134.57 41.9873C135.097 42.5615 135.765 42.8486 136.574 42.8486C137.148 42.8486 137.634 42.7314 138.033 42.4971C138.431 42.2627 138.78 41.9521 139.079 41.5654L140.072 42.3389C139.275 43.5635 138.079 44.1758 136.486 44.1758ZM136.284 35.6504C135.627 35.6504 135.077 35.8906 134.631 36.3711C134.186 36.8457 133.911 37.5137 133.805 38.375H138.569V38.252C138.522 37.4258 138.299 36.7871 137.901 36.3359C137.502 35.8789 136.963 35.6504 136.284 35.6504ZM148.515 44C148.422 43.8125 148.346 43.4785 148.287 42.998C147.531 43.7832 146.629 44.1758 145.58 44.1758C144.642 44.1758 143.872 43.9121 143.268 43.3848C142.671 42.8516 142.372 42.1777 142.372 41.3633C142.372 40.373 142.747 39.6055 143.497 39.0605C144.253 38.5098 145.313 38.2344 146.679 38.2344H148.261V37.4873C148.261 36.9189 148.091 36.4678 147.751 36.1338C147.411 35.7939 146.91 35.624 146.248 35.624C145.668 35.624 145.181 35.7705 144.789 36.0635C144.396 36.3564 144.2 36.7109 144.2 37.127H142.565C142.565 36.6523 142.732 36.1953 143.066 35.7559C143.406 35.3105 143.863 34.959 144.437 34.7012C145.017 34.4434 145.653 34.3145 146.345 34.3145C147.44 34.3145 148.299 34.5898 148.92 35.1406C149.541 35.6855 149.863 36.4385 149.887 37.3994V41.7764C149.887 42.6494 149.998 43.3438 150.221 43.8594V44H148.515ZM145.817 42.7607C146.327 42.7607 146.81 42.6289 147.267 42.3652C147.724 42.1016 148.056 41.7588 148.261 41.3369V39.3857H146.986C144.994 39.3857 143.998 39.9688 143.998 41.1348C143.998 41.6445 144.168 42.043 144.508 42.3301C144.848 42.6172 145.284 42.7607 145.817 42.7607ZM152.6 39.166C152.6 37.707 152.946 36.5352 153.637 35.6504C154.328 34.7598 155.234 34.3145 156.353 34.3145C157.466 34.3145 158.348 34.6953 158.998 35.457V30.5H160.624V44H159.13L159.051 42.9805C158.401 43.7773 157.495 44.1758 156.335 44.1758C155.234 44.1758 154.334 43.7246 153.637 42.8223C152.946 41.9199 152.6 40.7422 152.6 39.2891V39.166ZM154.226 39.3506C154.226 40.4287 154.449 41.2725 154.894 41.8818C155.339 42.4912 155.954 42.7959 156.74 42.7959C157.771 42.7959 158.524 42.333 158.998 41.4072V37.0391C158.512 36.1426 157.765 35.6943 156.757 35.6943C155.96 35.6943 155.339 36.002 154.894 36.6172C154.449 37.2324 154.226 38.1436 154.226 39.3506ZM169.587 44C169.493 43.8125 169.417 43.4785 169.358 42.998C168.602 43.7832 167.7 44.1758 166.651 44.1758C165.714 44.1758 164.943 43.9121 164.34 43.3848C163.742 42.8516 163.443 42.1777 163.443 41.3633C163.443 40.373 163.818 39.6055 164.568 39.0605C165.324 38.5098 166.384 38.2344 167.75 38.2344H169.332V37.4873C169.332 36.9189 169.162 36.4678 168.822 36.1338C168.482 35.7939 167.981 35.624 167.319 35.624C166.739 35.624 166.253 35.7705 165.86 36.0635C165.467 36.3564 165.271 36.7109 165.271 37.127H163.636C163.636 36.6523 163.803 36.1953 164.137 35.7559C164.477 35.3105 164.934 34.959 165.509 34.7012C166.089 34.4434 166.724 34.3145 167.416 34.3145C168.511 34.3145 169.37 34.5898 169.991 35.1406C170.612 35.6855 170.934 36.4385 170.958 37.3994V41.7764C170.958 42.6494 171.069 43.3438 171.292 43.8594V44H169.587ZM166.888 42.7607C167.398 42.7607 167.882 42.6289 168.339 42.3652C168.796 42.1016 169.127 41.7588 169.332 41.3369V39.3857H168.057C166.065 39.3857 165.069 39.9688 165.069 41.1348C165.069 41.6445 165.239 42.043 165.579 42.3301C165.919 42.6172 166.355 42.7607 166.888 42.7607ZM177.881 42.8486C178.461 42.8486 178.968 42.6729 179.402 42.3213C179.835 41.9697 180.075 41.5303 180.122 41.0029H181.66C181.631 41.5479 181.444 42.0664 181.098 42.5586C180.752 43.0508 180.289 43.4434 179.709 43.7363C179.135 44.0293 178.526 44.1758 177.881 44.1758C176.586 44.1758 175.555 43.7451 174.787 42.8838C174.026 42.0166 173.645 40.833 173.645 39.333V39.0605C173.645 38.1348 173.815 37.3115 174.154 36.5908C174.494 35.8701 174.981 35.3105 175.613 34.9121C176.252 34.5137 177.005 34.3145 177.872 34.3145C178.939 34.3145 179.823 34.6338 180.527 35.2725C181.236 35.9111 181.613 36.7402 181.66 37.7598H180.122C180.075 37.1445 179.841 36.6406 179.419 36.248C179.003 35.8496 178.487 35.6504 177.872 35.6504C177.046 35.6504 176.404 35.9492 175.947 36.5469C175.496 37.1387 175.271 37.9971 175.271 39.1221V39.4297C175.271 40.5254 175.496 41.3691 175.947 41.9609C176.399 42.5527 177.043 42.8486 177.881 42.8486ZM185.674 35.6416C186.395 34.7568 187.333 34.3145 188.487 34.3145C190.497 34.3145 191.51 35.4482 191.528 37.7158V44H189.902V37.707C189.896 37.0215 189.738 36.5146 189.427 36.1865C189.123 35.8584 188.645 35.6943 187.995 35.6943C187.467 35.6943 187.004 35.835 186.606 36.1162C186.208 36.3975 185.897 36.7666 185.674 37.2236V44H184.048V30.5H185.674V35.6416ZM198.469 44.1758C197.18 44.1758 196.131 43.7539 195.322 42.9102C194.514 42.0605 194.109 40.9268 194.109 39.5088V39.21C194.109 38.2666 194.288 37.4258 194.646 36.6875C195.009 35.9434 195.513 35.3633 196.157 34.9473C196.808 34.5254 197.511 34.3145 198.267 34.3145C199.503 34.3145 200.464 34.7217 201.149 35.5361C201.835 36.3506 202.178 37.5166 202.178 39.0342V39.7109H195.735C195.759 40.6484 196.031 41.4072 196.553 41.9873C197.08 42.5615 197.748 42.8486 198.557 42.8486C199.131 42.8486 199.617 42.7314 200.016 42.4971C200.414 42.2627 200.763 41.9521 201.062 41.5654L202.055 42.3389C201.258 43.5635 200.063 44.1758 198.469 44.1758ZM198.267 35.6504C197.61 35.6504 197.06 35.8906 196.614 36.3711C196.169 36.8457 195.894 37.5137 195.788 38.375H200.552V38.252C200.505 37.4258 200.282 36.7871 199.884 36.3359C199.485 35.8789 198.946 35.6504 198.267 35.6504ZM204.575 46.5488L203.652 45.916C204.203 45.1484 204.49 44.3574 204.513 43.543V42.0752H206.104V43.3496C206.104 43.9414 205.958 44.5332 205.665 45.125C205.377 45.7168 205.014 46.1914 204.575 46.5488ZM217.56 42.8486C218.14 42.8486 218.647 42.6729 219.08 42.3213C219.514 41.9697 219.754 41.5303 219.801 41.0029H221.339C221.31 41.5479 221.122 42.0664 220.777 42.5586C220.431 43.0508 219.968 43.4434 219.388 43.7363C218.814 44.0293 218.204 44.1758 217.56 44.1758C216.265 44.1758 215.234 43.7451 214.466 42.8838C213.704 42.0166 213.324 40.833 213.324 39.333V39.0605C213.324 38.1348 213.494 37.3115 213.833 36.5908C214.173 35.8701 214.66 35.3105 215.292 34.9121C215.931 34.5137 216.684 34.3145 217.551 34.3145C218.618 34.3145 219.502 34.6338 220.205 35.2725C220.914 35.9111 221.292 36.7402 221.339 37.7598H219.801C219.754 37.1445 219.52 36.6406 219.098 36.248C218.682 35.8496 218.166 35.6504 217.551 35.6504C216.725 35.6504 216.083 35.9492 215.626 36.5469C215.175 37.1387 214.95 37.9971 214.95 39.1221V39.4297C214.95 40.5254 215.175 41.3691 215.626 41.9609C216.077 42.5527 216.722 42.8486 217.56 42.8486ZM229.598 44C229.505 43.8125 229.429 43.4785 229.37 42.998C228.614 43.7832 227.712 44.1758 226.663 44.1758C225.725 44.1758 224.955 43.9121 224.351 43.3848C223.754 42.8516 223.455 42.1777 223.455 41.3633C223.455 40.373 223.83 39.6055 224.58 39.0605C225.336 38.5098 226.396 38.2344 227.762 38.2344H229.344V37.4873C229.344 36.9189 229.174 36.4678 228.834 36.1338C228.494 35.7939 227.993 35.624 227.331 35.624C226.751 35.624 226.264 35.7705 225.872 36.0635C225.479 36.3564 225.283 36.7109 225.283 37.127H223.648C223.648 36.6523 223.815 36.1953 224.149 35.7559C224.489 35.3105 224.946 34.959 225.52 34.7012C226.1 34.4434 226.736 34.3145 227.428 34.3145C228.523 34.3145 229.382 34.5898 230.003 35.1406C230.624 35.6855 230.946 36.4385 230.97 37.3994V41.7764C230.97 42.6494 231.081 43.3438 231.304 43.8594V44H229.598ZM226.9 42.7607C227.41 42.7607 227.893 42.6289 228.35 42.3652C228.807 42.1016 229.138 41.7588 229.344 41.3369V39.3857H228.069C226.077 39.3857 225.081 39.9688 225.081 41.1348C225.081 41.6445 225.251 42.043 225.591 42.3301C225.93 42.6172 226.367 42.7607 226.9 42.7607ZM235.616 34.4902L235.669 35.6855C236.396 34.7715 237.345 34.3145 238.517 34.3145C240.527 34.3145 241.54 35.4482 241.558 37.7158V44H239.932V37.707C239.926 37.0215 239.768 36.5146 239.457 36.1865C239.153 35.8584 238.675 35.6943 238.025 35.6943C237.497 35.6943 237.034 35.835 236.636 36.1162C236.238 36.3975 235.927 36.7666 235.704 37.2236V44H234.078V34.4902H235.616ZM251.66 44H249.973V31.2031H251.66V44ZM53.4365 55.1875V57.4902H55.2119V58.7471H53.4365V64.6445C53.4365 65.0254 53.5156 65.3125 53.6738 65.5059C53.832 65.6934 54.1016 65.7871 54.4824 65.7871C54.6699 65.7871 54.9277 65.752 55.2559 65.6816V67C54.8281 67.1172 54.4121 67.1758 54.0078 67.1758C53.2812 67.1758 52.7334 66.9561 52.3643 66.5166C51.9951 66.0771 51.8105 65.4531 51.8105 64.6445V58.7471H50.0791V57.4902H51.8105V55.1875H53.4365ZM63.5502 67C63.4565 66.8125 63.3803 66.4785 63.3217 65.998C62.5659 66.7832 61.6635 67.1758 60.6147 67.1758C59.6772 67.1758 58.9067 66.9121 58.3032 66.3848C57.7055 65.8516 57.4067 65.1777 57.4067 64.3633C57.4067 63.373 57.7817 62.6055 58.5317 62.0605C59.2875 61.5098 60.3481 61.2344 61.7133 61.2344H63.2954V60.4873C63.2954 59.9189 63.1254 59.4678 62.7856 59.1338C62.4457 58.7939 61.9448 58.624 61.2827 58.624C60.7026 58.624 60.2162 58.7705 59.8237 59.0635C59.4311 59.3564 59.2348 59.7109 59.2348 60.127H57.6C57.6 59.6523 57.767 59.1953 58.101 58.7559C58.4409 58.3105 58.8979 57.959 59.4721 57.7012C60.0522 57.4434 60.6879 57.3145 61.3793 57.3145C62.475 57.3145 63.3334 57.5898 63.9545 58.1406C64.5756 58.6855 64.8979 59.4385 64.9213 60.3994V64.7764C64.9213 65.6494 65.0327 66.3438 65.2553 66.8594V67H63.5502ZM60.852 65.7607C61.3618 65.7607 61.8452 65.6289 62.3022 65.3652C62.7592 65.1016 63.0903 64.7588 63.2954 64.3369V62.3857H62.0209C60.0287 62.3857 59.0327 62.9688 59.0327 64.1348C59.0327 64.6445 59.2026 65.043 59.5424 65.3301C59.8823 65.6172 60.3188 65.7607 60.852 65.7607ZM70.6845 62.5967L69.6649 63.6602V67H68.0389V53.5H69.6649V61.665L70.535 60.6191L73.497 57.4902H75.4745L71.7743 61.4629L75.9052 67H73.9979L70.6845 62.5967ZM81.4837 67.1758C80.1946 67.1758 79.1458 66.7539 78.3372 65.9102C77.5286 65.0605 77.1243 63.9268 77.1243 62.5088V62.21C77.1243 61.2666 77.303 60.4258 77.6605 59.6875C78.0238 58.9434 78.5277 58.3633 79.1722 57.9473C79.8226 57.5254 80.5257 57.3145 81.2816 57.3145C82.5179 57.3145 83.4788 57.7217 84.1644 58.5361C84.8499 59.3506 85.1927 60.5166 85.1927 62.0342V62.7109H78.7503C78.7738 63.6484 79.0462 64.4072 79.5677 64.9873C80.095 65.5615 80.763 65.8486 81.5716 65.8486C82.1458 65.8486 82.6321 65.7314 83.0306 65.4971C83.429 65.2627 83.7777 64.9521 84.0765 64.5654L85.0696 65.3389C84.2728 66.5635 83.0775 67.1758 81.4837 67.1758ZM81.2816 58.6504C80.6253 58.6504 80.0745 58.8906 79.6292 59.3711C79.1839 59.8457 78.9085 60.5137 78.803 61.375H83.5667V61.252C83.5198 60.4258 83.2972 59.7871 82.8988 59.3359C82.5003 58.8789 81.9613 58.6504 81.2816 58.6504ZM99.9885 63.6602H94.6271L93.423 67H91.6828L96.5695 54.2031H98.0461L102.942 67H101.21L99.9885 63.6602ZM95.1369 62.2715H99.4875L97.3078 56.2861L95.1369 62.2715ZM104.574 62.166C104.574 60.707 104.92 59.5352 105.611 58.6504C106.302 57.7598 107.208 57.3145 108.327 57.3145C109.44 57.3145 110.322 57.6953 110.972 58.457V53.5H112.598V67H111.104L111.025 65.9805C110.375 66.7773 109.469 67.1758 108.309 67.1758C107.208 67.1758 106.308 66.7246 105.611 65.8223C104.92 64.9199 104.574 63.7422 104.574 62.2891V62.166ZM106.2 62.3506C106.2 63.4287 106.423 64.2725 106.868 64.8818C107.313 65.4912 107.928 65.7959 108.714 65.7959C109.745 65.7959 110.498 65.333 110.972 64.4072V60.0391C110.486 59.1426 109.739 58.6943 108.731 58.6943C107.934 58.6943 107.313 59.002 106.868 59.6172C106.423 60.2324 106.2 61.1436 106.2 62.3506ZM118.827 64.7939L121.183 57.4902H122.844L119.434 67H118.194L114.749 57.4902H116.41L118.827 64.7939ZM126.735 67H125.109V57.4902H126.735V67ZM124.977 54.9678C124.977 54.7041 125.056 54.4814 125.214 54.2998C125.378 54.1182 125.619 54.0273 125.935 54.0273C126.251 54.0273 126.492 54.1182 126.656 54.2998C126.82 54.4814 126.902 54.7041 126.902 54.9678C126.902 55.2314 126.82 55.4512 126.656 55.627C126.492 55.8027 126.251 55.8906 125.935 55.8906C125.619 55.8906 125.378 55.8027 125.214 55.627C125.056 55.4512 124.977 55.2314 124.977 54.9678ZM131.672 67H130.046V53.5H131.672V67ZM136.749 63.3965C136.761 62.6992 136.84 62.1484 136.987 61.7441C137.133 61.3398 137.432 60.8916 137.883 60.3994L139.035 59.2129C139.527 58.6562 139.773 58.0586 139.773 57.4199C139.773 56.8047 139.612 56.3242 139.289 55.9785C138.967 55.627 138.498 55.4512 137.883 55.4512C137.286 55.4512 136.805 55.6094 136.442 55.9258C136.079 56.2422 135.897 56.667 135.897 57.2002H134.271C134.283 56.251 134.62 55.4863 135.282 54.9062C135.95 54.3203 136.817 54.0273 137.883 54.0273C138.991 54.0273 139.852 54.3262 140.467 54.9238C141.088 55.5156 141.399 56.3301 141.399 57.3672C141.399 58.3926 140.924 59.4033 139.975 60.3994L139.017 61.3486C138.589 61.8232 138.375 62.5059 138.375 63.3965H136.749ZM136.679 66.1826C136.679 65.9189 136.758 65.6992 136.916 65.5234C137.08 65.3418 137.321 65.251 137.637 65.251C137.954 65.251 138.194 65.3418 138.358 65.5234C138.522 65.6992 138.604 65.9189 138.604 66.1826C138.604 66.4463 138.522 66.666 138.358 66.8418C138.194 67.0117 137.954 67.0967 137.637 67.0967C137.321 67.0967 137.08 67.0117 136.916 66.8418C136.758 66.666 136.679 66.4463 136.679 66.1826Z" fill="#0B4A72"/>
</svg>
